SplineFontDB: 3.2
FontName: Basica-Regular
FullName: Basica
FamilyName: Basica
Weight: Regular
Copyright: 
Version: 1.000; ttfautohint (v1.8.2.53-6de2)
ItalicAngle: 0
UnderlinePosition: -105
UnderlineWidth: 39
Ascent: 819
Descent: 205
InvalidEm: 0
sfntRevision: 0x00010000
LayerCount: 2
Layer: 0 1 "Back" 1
Layer: 1 0 "Fore" 0
XUID: [1021 644 -1152176804 10069]
StyleMap: 0x0040
FSType: 0
OS2Version: 4
OS2_WeightWidthSlopeOnly: 0
OS2_UseTypoMetrics: 1
CreationTime: 1592915285
ModificationTime: 1614128586
PfmFamily: 81
TTFWeight: 500
TTFWidth: 5
LineGap: 0
VLineGap: 0
Panose: 0 0 0 0 0 0 0 0 0 0
OS2TypoAscent: 1035
OS2TypoAOffset: 0
OS2TypoDescent: -361
OS2TypoDOffset: 0
OS2TypoLinegap: 0
OS2WinAscent: 1103
OS2WinAOffset: 0
OS2WinDescent: 307
OS2WinDOffset: 0
HheadAscent: 1035
HheadAOffset: 0
HheadDescent: -361
HheadDOffset: 0
OS2SubXSize: 666
OS2SubYSize: 614
OS2SubXOff: 0
OS2SubYOff: 77
OS2SupXSize: 666
OS2SupYSize: 614
OS2SupXOff: 0
OS2SupYOff: 358
OS2StrikeYSize: 40
OS2StrikeYPos: 300
OS2CapHeight: 722
OS2XHeight: 500
OS2Vendor: 'NONE'
OS2CodePages: 20000197.00000000
OS2UnicodeRanges: a00002ff.5000204b.00000000.00000000
Lookup: 1 0 0 "'aalt' Activar todas las variantes lookup 0" { "'aalt' Activar todas las variantes lookup 0 subtable"  } ['aalt' ('DFLT' <'dflt' > 'cyrl' <'BSH ' 'CHU ' 'dflt' > 'latn' <'AZE ' 'CAT ' 'CRT ' 'KAZ ' 'MOL ' 'NLD ' 'ROM ' 'TAT ' 'TRK ' 'dflt' > ) ]
Lookup: 3 0 0 "'aalt' Activar todas las variantes lookup 1" { "'aalt' Activar todas las variantes lookup 1 subtable"  } ['aalt' ('DFLT' <'dflt' > 'cyrl' <'BSH ' 'CHU ' 'dflt' > 'latn' <'AZE ' 'CAT ' 'CRT ' 'KAZ ' 'MOL ' 'NLD ' 'ROM ' 'TAT ' 'TRK ' 'dflt' > ) ]

StartChar: A
Encoding: 65 65 0
Width: 694
GlyphClass: 2
Flags: W
HStem: -7 21G<72 84 610 622> 193 90<227 467> 709 20G<338 356>
LayerCount: 2
Fore
SplineSet
388 701 m 2
 660 55 l 2
 662 49 664 44 664 38 c 7
 664 20 653 4 636 -3 c 0
 630 -5 625 -7 619 -7 c 3
 601 -7 584 4 577 21 c 2
 505 193 l 1
 189 193 l 1
 117 21 l 2
 110 4 93 -7 75 -7 c 3
 69 -7 64 -5 58 -3 c 0
 41 4 30 20 30 38 c 3
 30 44 32 49 34 55 c 2
 306 701 l 2
 313 718 329 729 347 729 c 3
 365 729 381 718 388 701 c 2
347 568 m 1
 227 283 l 1
 467 283 l 1
 347 568 l 1
EndSplineSet
Substitution2: "Single Substitution lookup 29 subtable" ordfeminine
Substitution2: "'aalt' Activar todas las variantes lookup 0 subtable" ordfeminine
EndChar

StartChar: Atilde
Encoding: 195 195 5
Width: 694
GlyphClass: 2
Flags: W
HStem: -7 21G<72 84 610 622> 193 90<227 467> 709 20G<338 356> 801 70<381.926 481.226> 873 70<212.774 312.074>
VStem: 129 68<797.487 857.781> 497 68<886.219 946.513>
LayerCount: 2
Fore
SplineSet
530 949 m 7
 549 949 565 933 565 914 c 7
 565 890 531 801 438 801 c 7
 391 801 364 822 328 842 c 4
 304 855 280 873 256 873 c 7
 224 873 207 850 197 819 c 4
 193 805 179 795 164 795 c 7
 145 795 129 811 129 830 c 7
 129 854 163 943 256 943 c 7
 303 943 330 922 366 902 c 4
 390 889 414 871 438 871 c 7
 470 871 487 894 497 925 c 4
 501 939 515 949 530 949 c 7
EndSplineSet
Refer: 0 65 N 1 0 0 1 0 0 2
EndChar

StartChar: B
Encoding: 66 66 6
Width: 698
GlyphClass: 2
Flags: W
HStem: 0 90<174 496.141> 338 90<174 467.336> 632 90<174 469.214>
VStem: 84 90<90 338 428 632> 512 90<468.902 590.634> 550 90<139.778 287.767>
LayerCount: 2
Fore
SplineSet
129 722 m 2xf4
 413 722 l 2
 506 722 602 674 602 545 c 3xf8
 602 482 571 423 515 395 c 1
 600 356 640 300 640 212 c 7
 640 84 552 0 423 0 c 2
 129 0 l 2
 104 0 84 20 84 45 c 2
 84 677 l 2
 84 702 104 722 129 722 c 2xf4
174 632 m 1
 174 428 l 1
 387 428 l 2
 441 428 512 454 512 530 c 3
 512 606 441 632 387 632 c 2
 174 632 l 1
174 338 m 1
 174 90 l 1
 423 90 l 2
 484 90 550 130 550 212 c 7xf4
 550 321 463 338 382 338 c 2
 174 338 l 1
EndSplineSet
EndChar

StartChar: C
Encoding: 67 67 7
Width: 692
GlyphClass: 2
Flags: W
HStem: -9 90<304.532 542.457> 641 90<304.944 538.536>
VStem: 51 90<258.854 466.079>
LayerCount: 2
Fore
SplineSet
404 641 m 3
 256 641 141 505 141 362 c 3
 141 229 251 81 400 81 c 3
 442 81 482 86 514 93 c 0
 552 101 574 127 596 127 c 7
 621 127 641 107 641 82 c 7
 641 38 580 19 536 6 c 0
 495 -6 448 -9 400 -9 c 3
 213 -9 51 161 51 362 c 3
 51 551 198 731 404 731 c 3
 481 731 538 724 616 683 c 0
 631 675 641 660 641 642 c 3
 641 617 620 597 596 597 c 3
 573 597 555 618 501 632 c 0
 474 639 448 641 404 641 c 3
EndSplineSet
EndChar

StartChar: D
Encoding: 68 68 9
Width: 769
GlyphClass: 2
Flags: W
HStem: 0 90<174 498.719> 632 90<174 474.166>
VStem: 84 90<90 632> 621 90<228.127 476.31>
LayerCount: 2
Fore
SplineSet
129 722 m 2
 388 722 l 2
 560 722 711 567 711 355 c 7
 711 146 577 0 408 0 c 2
 129 0 l 2
 104 0 84 20 84 45 c 2
 84 677 l 2
 84 702 104 722 129 722 c 2
174 632 m 1
 174 90 l 1
 408 90 l 2
 528 90 621 182 621 355 c 7
 621 525 505 632 388 632 c 2
 174 632 l 1
EndSplineSet
EndChar

StartChar: E
Encoding: 69 69 10
Width: 588
GlyphClass: 2
Flags: W
HStem: 0 90<154 517.519> 342 90<154 478.519> 632 90<154 517.519>
VStem: 64 90<90 342 432 632>
LayerCount: 2
Fore
SplineSet
109 722 m 2
 479 722 l 2
 504 722 524 702 524 677 c 3
 524 652 504 632 479 632 c 2
 154 632 l 1
 154 432 l 1
 440 432 l 2
 465 432 485 412 485 387 c 3
 485 362 465 342 440 342 c 2
 154 342 l 1
 154 90 l 1
 479 90 l 2
 504 90 524 70 524 45 c 7
 524 20 504 0 479 0 c 2
 109 0 l 2
 84 0 64 20 64 45 c 2
 64 677 l 2
 64 702 84 722 109 722 c 2
EndSplineSet
EndChar

StartChar: F
Encoding: 70 70 15
Width: 567
GlyphClass: 2
Flags: W
HStem: 342 90<174 498.519> 632 90<174 537.519>
VStem: 84 90<6.48056 342 432 632>
LayerCount: 2
Fore
SplineSet
129 722 m 2
 499 722 l 2
 524 722 544 702 544 677 c 3
 544 652 524 632 499 632 c 2
 174 632 l 1
 174 432 l 1
 460 432 l 2
 485 432 505 412 505 387 c 3
 505 362 485 342 460 342 c 2
 174 342 l 1
 174 45 l 2
 174 20 154 0 129 0 c 7
 104 0 84 20 84 45 c 2
 84 677 l 2
 84 702 104 722 129 722 c 2
EndSplineSet
EndChar

StartChar: G
Encoding: 71 71 16
Width: 757
GlyphClass: 2
Flags: W
HStem: -9 90<323.539 550.07> 294 90<401.481 589> 641 90<323.886 556.02>
VStem: 59 90<249.139 471.95> 395 284<300.481 377.519> 589 90<111.426 294>
LayerCount: 2
Fore
SplineSet
450 81 m 7xf4
 514 81 565 108 589 124 c 1
 589 294 l 1xf4
 440 294 l 2
 415 294 395 314 395 339 c 3
 395 364 415 384 440 384 c 2
 634 384 l 2
 659 384 679 364 679 339 c 2xf8
 679 101 l 2
 679 87 673 75 663 67 c 0
 653 59 576 -9 450 -9 c 7
 204 -9 59 154 59 361 c 3
 59 593 235 731 450 731 c 3
 512 731 571 717 635 679 c 0
 648 671 656 656 656 640 c 3
 656 612 634 596 611 596 c 3
 603 596 595 598 588 602 c 0
 536 633 501 641 450 641 c 3
 260 641 149 520 149 361 c 3
 149 182 280 81 450 81 c 7xf4
EndSplineSet
EndChar

StartChar: H
Encoding: 72 72 17
Width: 754
GlyphClass: 2
Flags: W
HStem: -7 21G<117.5 142.5 611.5 636.5> 336 90<174 580> 709 20G<117.5 142.5 611.5 636.5>
VStem: 84 90<-0.51944 336 426 722.519> 580 90<-0.51944 336 426 722.519>
LayerCount: 2
Fore
SplineSet
130 729 m 7
 155 729 174 709 174 684 c 2
 174 426 l 1
 580 426 l 1
 580 684 l 2
 580 709 599 729 624 729 c 7
 649 729 670 709 670 684 c 2
 670 38 l 2
 670 13 649 -7 624 -7 c 3
 599 -7 580 13 580 38 c 2
 580 336 l 1
 174 336 l 1
 174 38 l 2
 174 13 155 -7 130 -7 c 3
 105 -7 84 13 84 38 c 2
 84 684 l 2
 84 709 105 729 130 729 c 7
EndSplineSet
EndChar

StartChar: I
Encoding: 73 73 18
Width: 300
GlyphClass: 2
Flags: W
HStem: -7 90<56.4806 105 195 243.519> 639 90<56.4806 105 195 243.519>
VStem: 50 200<-0.51944 76.5194 645.481 722.519>
LayerCount: 2
Fore
SplineSet
95 729 m 2
 205 729 l 2
 230 729 250 709 250 684 c 3
 250 659 230 639 205 639 c 2
 195 639 l 1
 195 83 l 1
 205 83 l 2
 230 83 250 63 250 38 c 7
 250 13 230 -7 205 -7 c 2
 95 -7 l 2
 70 -7 50 13 50 38 c 7
 50 63 70 83 95 83 c 2
 105 83 l 1
 105 639 l 1
 95 639 l 2
 70 639 50 659 50 684 c 3
 50 709 70 729 95 729 c 2
EndSplineSet
EndChar

StartChar: J
Encoding: 74 74 23
Width: 537
GlyphClass: 2
Flags: W
HStem: -6 90<147.051 295.829> 639 90<184.481 366>
VStem: 366 90<159.443 639>
LayerCount: 2
Fore
SplineSet
411 729 m 6
 436 729 456 709 456 684 c 6
 456 241 l 6
 456 113 357 -6 233 -6 c 7
 76 -6 13 110 13 141 c 7
 13 163 29 186 58 186 c 7
 75 186 89 177 97 163 c 4
 133 97 178 84 233 84 c 7
 315 84 366 175 366 241 c 6
 366 639 l 5
 223 639 l 6
 198 639 178 659 178 684 c 7
 178 709 198 729 223 729 c 6
 411 729 l 6
EndSplineSet
EndChar

StartChar: K
Encoding: 75 75 24
Width: 658
GlyphClass: 2
Flags: W
HStem: -7 21G<116.5 141.5 572.5 592> 709 20G<116.5 141.5 553 572>
VStem: 84 90<-0.51944 215 345 722.519>
LayerCount: 2
Fore
SplineSet
174 684 m 2
 174 345 l 1
 526 715 l 2
 534 724 547 729 559 729 c 3
 585 729 604 710 604 684 c 3
 604 673 600 662 592 653 c 2
 340 389 l 1
 613 67 l 2
 620 59 624 48 624 38 c 3
 624 14 605 -7 579 -7 c 3
 566 -7 554 -1 545 9 c 2
 278 323 l 1
 174 215 l 1
 174 38 l 2
 174 13 154 -7 129 -7 c 7
 104 -7 84 13 84 38 c 2
 84 684 l 2
 84 709 104 729 129 729 c 3
 154 729 174 709 174 684 c 2
EndSplineSet
EndChar

StartChar: L
Encoding: 76 76 25
Width: 555
GlyphClass: 2
Flags: W
HStem: 0 90<174 538.519>
VStem: 84 90<90 719.519>
LayerCount: 2
Fore
SplineSet
129 726 m 3
 154 726 174 706 174 681 c 2
 174 90 l 1
 500 90 l 2
 525 90 545 70 545 45 c 7
 545 20 525 0 500 0 c 2
 129 0 l 2
 104 0 84 20 84 45 c 2
 84 681 l 2
 84 706 104 726 129 726 c 3
EndSplineSet
EndChar

StartChar: M
Encoding: 77 77 26
Width: 881
GlyphClass: 2
Flags: W
HStem: -7 21G<117.5 142.5 737.5 762.5> 709 20G<117.5 137.5 742.5 762.5>
VStem: 86 90<-0.51944 544> 706 90<-0.51944 544>
LayerCount: 2
Fore
SplineSet
168 710 m 2
 440 327 l 1
 714 710 l 2
 722 721 735 729 750 729 c 3
 775 729 796 709 796 684 c 2
 796 38 l 2
 796 13 775 -7 750 -7 c 3
 725 -7 706 13 706 38 c 2
 706 544 l 1
 478 224 l 2
 470 213 455 205 440 205 c 3
 425 205 412 213 404 224 c 2
 176 544 l 1
 176 38 l 2
 176 13 155 -7 130 -7 c 7
 105 -7 86 13 86 38 c 2
 86 684 l 2
 86 709 105 729 130 729 c 3
 145 729 160 721 168 710 c 2
EndSplineSet
EndChar

StartChar: N
Encoding: 78 78 27
Width: 760
GlyphClass: 2
Flags: W
HStem: -7 21G<115.5 140.5 625 644> 709 20G<116 135 619.5 644.5>
VStem: 84 90<-0.51944 553> 586 90<169 722.519>
LayerCount: 2
Fore
SplineSet
632 729 m 3
 657 729 676 709 676 684 c 2
 676 38 l 2
 676 13 656 -7 632 -7 c 3
 618 -7 605 -1 596 10 c 2
 174 553 l 1
 174 38 l 2
 174 13 153 -7 128 -7 c 3
 103 -7 84 13 84 38 c 2
 84 684 l 2
 84 710 104 729 128 729 c 3
 142 729 155 723 164 712 c 2
 586 169 l 1
 586 684 l 2
 586 709 607 729 632 729 c 3
EndSplineSet
EndChar

StartChar: O
Encoding: 79 79 29
Width: 787
GlyphClass: 2
Flags: W
HStem: -9 90<288.301 499.484> 641 90<288.301 499.484>
VStem: 58 90<233.651 488.349> 638 90<233.651 488.349>
LayerCount: 2
Fore
SplineSet
394 731 m 7
 599 731 728 585 728 361 c 7
 728 137 599 -9 394 -9 c 7
 189 -9 58 137 58 361 c 7
 58 585 189 731 394 731 c 7
394 641 m 7
 209 641 148 491 148 361 c 7
 148 231 209 81 394 81 c 7
 579 81 638 231 638 361 c 7
 638 491 579 641 394 641 c 7
EndSplineSet
Substitution2: "Single Substitution lookup 29 subtable" ordmasculine
Substitution2: "'aalt' Activar todas las variantes lookup 0 subtable" ordmasculine
EndChar

StartChar: Otilde
Encoding: 213 213 34
Width: 787
GlyphClass: 2
Flags: W
HStem: -9 90<288.301 499.484> 641 90<288.301 499.484> 801 70<440.926 540.226> 873 70<271.774 371.074>
VStem: 58 90<233.651 488.349> 188 68<797.487 857.781> 556 68<886.219 946.513> 638 90<233.651 488.349>
LayerCount: 2
Fore
SplineSet
589 949 m 7
 608 949 624 933 624 914 c 7
 624 890 590 801 497 801 c 7
 450 801 423 822 387 842 c 4
 363 855 339 873 315 873 c 7
 283 873 266 850 256 819 c 4
 252 805 238 795 223 795 c 7
 204 795 188 811 188 830 c 7
 188 854 222 943 315 943 c 7
 362 943 389 922 425 902 c 4
 449 889 473 871 497 871 c 7
 529 871 546 894 556 925 c 4
 560 939 574 949 589 949 c 7
EndSplineSet
Refer: 29 79 N 1 0 0 1 0 0 2
EndChar

StartChar: P
Encoding: 80 80 35
Width: 614
GlyphClass: 2
Flags: W
HStem: -7 21G<116.5 141.5> 274 90<174 435.168> 632 90<174 432.969>
VStem: 84 90<-0.51944 274 364 632> 494 90<418.852 576.618>
LayerCount: 2
Fore
SplineSet
333 722 m 2
 477 722 584 652 584 498 c 3
 584 342 469 274 333 274 c 2
 174 274 l 1
 174 38 l 2
 174 13 154 -7 129 -7 c 7
 104 -7 84 13 84 38 c 2
 84 677 l 2
 84 702 104 722 129 722 c 2
 333 722 l 2
174 364 m 1
 333 364 l 2
 430 364 494 401 494 498 c 3
 494 607 413 632 333 632 c 2
 174 632 l 1
 174 364 l 1
EndSplineSet
EndChar

StartChar: Q
Encoding: 81 81 36
Width: 787
GlyphClass: 2
Flags: W
HStem: -9 90<288.301 471.431> 641 90<288.301 499.484>
VStem: 58 90<233.651 488.349> 638 90<229.892 488.349>
LayerCount: 2
Fore
SplineSet
728 361 m 3
 728 229 683 124 604 60 c 1
 688 -56 l 2
 693 -63 698 -72 698 -82 c 7
 698 -107 677 -127 652 -127 c 7
 637 -127 624 -119 616 -108 c 2
 526 15 l 1
 487 -1 443 -9 394 -9 c 3
 189 -9 58 137 58 361 c 3
 58 585 189 731 394 731 c 3
 599 731 728 585 728 361 c 3
446 279 m 2
 552 134 l 1
 616 189 638 279 638 361 c 3
 638 491 579 641 394 641 c 3
 209 641 148 491 148 361 c 3
 148 231 209 81 394 81 c 3
 423 81 449 84 472 91 c 1
 374 227 l 2
 369 234 364 243 364 253 c 3
 364 279 385 298 410 298 c 3
 425 298 438 290 446 279 c 2
EndSplineSet
EndChar

StartChar: R
Encoding: 82 82 37
Width: 649
GlyphClass: 2
Flags: W
HStem: -7 21G<116.5 141.5 545.5 566> 274 90<174 374.344> 632 90<174 432.969>
VStem: 84 90<-0.51944 274 364 632> 494 90<417.768 576.618>
LayerCount: 2
Fore
SplineSet
333 722 m 2
 477 722 584 652 584 498 c 3
 584 396 535 333 464 300 c 1
 594 59 l 2
 597 53 599 46 599 38 c 3
 599 12 578 -7 554 -7 c 3
 537 -7 522 3 514 17 c 2
 375 276 l 1
 361 275 347 274 333 274 c 2
 174 274 l 1
 174 38 l 2
 174 13 154 -7 129 -7 c 3
 104 -7 84 13 84 38 c 2
 84 677 l 2
 84 702 104 722 129 722 c 2
 333 722 l 2
174 632 m 1
 174 364 l 1
 333 364 l 2
 430 364 494 401 494 498 c 3
 494 607 413 632 333 632 c 2
 174 632 l 1
EndSplineSet
EndChar

StartChar: S
Encoding: 83 83 38
Width: 604
GlyphClass: 2
Flags: W
HStem: -9 90<188.352 403.905> 641 90<205.834 418.093>
VStem: 59 90<465.437 589.103> 471 90<137.444 254.263>
LayerCount: 2
Fore
SplineSet
536 637 m 0
 543 629 548 619 548 607 c 3
 548 581 528 562 503 562 c 3
 490 562 478 567 470 576 c 0
 443 605 413 641 302 641 c 3
 220 641 149 605 149 524 c 3
 149 455 220 418 310 405 c 0
 432 387 561 339 561 198 c 3
 561 57 423 -9 302 -9 c 3
 172 -9 101 48 56 93 c 0
 48 101 43 113 43 125 c 3
 43 151 64 170 88 170 c 3
 100 170 112 165 120 157 c 0
 161 116 196 81 302 81 c 3
 380 81 471 117 471 198 c 3
 471 284 366 305 294 317 c 0
 165 338 59 398 59 524 c 3
 59 661 177 731 302 731 c 3
 437 731 505 670 536 637 c 0
EndSplineSet
EndChar

StartChar: T
Encoding: 84 84 39
Width: 572
GlyphClass: 2
Flags: W
HStem: -7 21G<273.5 298.5> 632 90<2.48056 241 331 569.519>
VStem: 241 90<-0.51944 632>
LayerCount: 2
Fore
SplineSet
41 722 m 2
 531 722 l 2
 556 722 576 702 576 677 c 3
 576 652 556 632 531 632 c 2
 331 632 l 1
 331 38 l 2
 331 13 311 -7 286 -7 c 7
 261 -7 241 13 241 38 c 2
 241 632 l 1
 41 632 l 2
 16 632 -4 652 -4 677 c 3
 -4 702 16 722 41 722 c 2
EndSplineSet
EndChar

StartChar: U
Encoding: 85 85 40
Width: 728
GlyphClass: 2
Flags: W
HStem: -9 90<272.905 455.095> 709 20G<111.5 136.5 591.5 616.5>
VStem: 79 90<188.392 722.519> 559 90<188.392 722.519>
LayerCount: 2
Fore
SplineSet
124 729 m 3
 149 729 169 709 169 684 c 2
 169 284 l 2
 169 178 240 81 364 81 c 3
 488 81 559 178 559 284 c 2
 559 684 l 2
 559 709 579 729 604 729 c 3
 629 729 649 709 649 684 c 2
 649 284 l 2
 649 135 537 -9 364 -9 c 3
 191 -9 79 135 79 284 c 2
 79 684 l 2
 79 709 99 729 124 729 c 3
EndSplineSet
EndChar

StartChar: V
Encoding: 86 86 45
Width: 673
GlyphClass: 2
Flags: W
HStem: -8 21G<326.5 345.5> -8 21G<326.5 345.5> 709 20G<47 70.5 602.5 626>
LayerCount: 2
Fore
SplineSet
61 729 m 3xa0
 80 729 95 718 102 702 c 2
 336 152 l 1
 571 702 l 2
 578 718 593 729 612 729 c 3
 640 729 657 706 657 684 c 3
 657 678 656 671 654 666 c 2
 378 19 l 2
 371 3 355 -8 336 -8 c 7
 317 -8 302 3 295 19 c 2
 19 666 l 2
 17 671 16 678 16 684 c 3
 16 706 33 729 61 729 c 3xa0
EndSplineSet
EndChar

StartChar: W
Encoding: 87 87 46
Width: 1040
GlyphClass: 2
Flags: W
LayerCount: 2
Fore
SplineSet
479 533 m 2
 486 548 502 559 520 559 c 3
 538 559 554 548 561 533 c 2
 730 164 l 1
 910 702 l 2
 916 720 933 733 953 733 c 3
 981 733 997 709 997 688 c 3
 997 683 997 678 995 674 c 2
 779 28 l 2
 773 10 756 -3 736 -3 c 7
 718 -3 702 7 695 23 c 2
 520 406 l 1
 345 23 l 2
 338 7 322 -3 304 -3 c 7
 284 -3 267 10 261 28 c 2
 45 674 l 2
 43 678 43 683 43 688 c 3
 43 709 60 733 88 733 c 3
 108 733 124 720 130 702 c 2
 310 164 l 1
 479 533 l 2
EndSplineSet
EndChar

StartChar: X
Encoding: 88 88 47
Width: 656
GlyphClass: 2
Flags: W
HStem: -7 21G<72.5 92.5 563.5 583.5> 709 20G<72.5 92.5 563.5 583.5>
LayerCount: 2
Fore
SplineSet
85 729 m 3
 100 729 113 722 121 711 c 2
 328 436 l 1
 535 711 l 2
 543 722 556 729 571 729 c 3
 596 729 616 710 616 684 c 3
 616 674 613 665 607 657 c 2
 384 361 l 1
 607 65 l 2
 613 57 616 48 616 38 c 3
 616 12 596 -7 571 -7 c 3
 556 -7 543 0 535 11 c 2
 328 286 l 1
 121 11 l 2
 113 0 100 -7 85 -7 c 7
 60 -7 40 12 40 38 c 7
 40 48 43 57 49 65 c 2
 272 361 l 1
 49 657 l 2
 43 665 40 674 40 684 c 3
 40 710 60 729 85 729 c 3
EndSplineSet
EndChar

StartChar: Y
Encoding: 89 89 48
Width: 620
GlyphClass: 2
Flags: W
HStem: -7 21G<298.5 323.5> 709 20G<54.5 74.5 545.5 565.5>
VStem: 266 90<-0.51944 345>
LayerCount: 2
Fore
SplineSet
67 729 m 3
 82 729 95 722 103 711 c 2
 310 436 l 1
 517 711 l 2
 525 722 538 729 553 729 c 3
 578 729 598 710 598 684 c 3
 598 674 595 665 589 657 c 2
 356 347 l 1
 356 38 l 2
 356 13 336 -7 311 -7 c 3
 286 -7 266 13 266 38 c 2
 266 345 l 1
 31 657 l 2
 25 665 22 674 22 684 c 3
 22 710 42 729 67 729 c 3
EndSplineSet
EndChar

StartChar: Z
Encoding: 90 90 49
Width: 610
GlyphClass: 2
Flags: W
HStem: 0 90<173 589.519> 632 90<67.4806 444>
LayerCount: 2
Fore
SplineSet
106 722 m 2
 531 722 l 2
 556 722 576 702 576 677 c 3
 576 667 573 658 568 651 c 2
 173 90 l 1
 551 90 l 2
 576 90 596 70 596 45 c 3
 596 20 576 0 551 0 c 2
 86 0 l 2
 61 0 41 20 41 45 c 3
 41 55 44 64 49 71 c 2
 444 632 l 1
 106 632 l 2
 81 632 61 652 61 677 c 3
 61 702 81 722 106 722 c 2
EndSplineSet
EndChar

StartChar: a
Encoding: 97 97 50
Width: 578
GlyphClass: 2
Flags: W
HStem: -9 90<214.336 367> 419 90<214.336 367> 479 20G<477.5 502.5>
VStem: 42 90<166.208 333.792> 446 90<7.48056 50 164.695 335.305 450 492.519>
LayerCount: 2
Fore
SplineSet
290 509 m 3xd8
 350 509 404 487 446 450 c 1
 446 454 l 2
 446 479 465 499 490 499 c 7xb8
 515 499 536 479 536 454 c 2
 536 46 l 2
 536 21 515 1 490 1 c 7
 465 1 446 21 446 46 c 2
 446 50 l 1
 404 13 350 -9 290 -9 c 3
 152 -9 42 109 42 250 c 3
 42 391 152 509 290 509 c 3xd8
290 419 m 3xd8
 206 419 132 346 132 250 c 3
 132 154 206 81 290 81 c 3
 374 81 446 154 446 250 c 3
 446 346 374 419 290 419 c 3xd8
EndSplineSet
Substitution2: "'ss01' Estilo 1 lookup 35 subtable" a.ss01
Substitution2: "'salt' Alternativas estil+AO0A-sticas lookup 34 subtable" a.ss01
Substitution2: "Single Substitution lookup 29 subtable" ordfeminine
AlternateSubs2: "'aalt' Activar todas las variantes lookup 1 subtable" a.ss01 ordfeminine
EndChar

StartChar: atilde
Encoding: 227 227 55
Width: 578
GlyphClass: 2
Flags: W
HStem: -9 90<214.336 367> 419 90<214.336 367> 479 20G<477.5 502.5> 607 70<313.185 398.396> 679 70<169.604 254.815>
VStem: 42 90<166.208 333.792> 99 58<602.015 668.249> 411 58<687.751 753.985> 446 90<7.48056 50 164.695 335.305 450 492.519>
LayerCount: 2
Fore
SplineSet
440 755 m 7x9b
 456 755 469 739 469 720 c 7
 469 696 441 607 362 607 c 7
 322 607 299 628 268 648 c 4
 248 661 226 679 206 679 c 7
 179 679 165 656 157 625 c 4
 153 611 141 601 128 601 c 7
 112 601 99 617 99 636 c 7
 99 660 127 749 206 749 c 7
 246 749 269 728 300 708 c 4
 320 695 342 677 362 677 c 7
 389 677 403 700 411 731 c 4
 415 745 427 755 440 755 c 7x9b
EndSplineSet
Refer: 50 97 N 1 0 0 1 0 0 2
Substitution2: "'ss01' Estilo 1 lookup 35 subtable" atilde.ss01
Substitution2: "'salt' Alternativas estil+AO0A-sticas lookup 34 subtable" atilde.ss01
Substitution2: "'aalt' Activar todas las variantes lookup 0 subtable" atilde.ss01
EndChar

StartChar: b
Encoding: 98 98 56
Width: 605
GlyphClass: 2
Flags: W
HStem: -9 90<240.885 391.603> 419 90<240.885 391.603> 709 20G<105.5 130.5>
VStem: 73 90<-2.51944 49 164.695 335.305 451 722.519> 471 90<163.23 336.77>
LayerCount: 2
Fore
SplineSet
118 729 m 3
 143 729 163 709 163 684 c 2
 163 451 l 1
 205 487 258 509 317 509 c 3
 453 509 561 391 561 250 c 7
 561 109 453 -9 317 -9 c 3
 258 -9 205 13 163 49 c 1
 163 36 l 2
 163 11 143 -9 118 -9 c 3
 93 -9 73 11 73 36 c 2
 73 684 l 2
 73 709 93 729 118 729 c 3
317 419 m 3
 233 419 163 346 163 250 c 7
 163 154 233 81 317 81 c 3
 401 81 471 154 471 250 c 7
 471 346 401 419 317 419 c 3
EndSplineSet
EndChar

StartChar: c
Encoding: 99 99 57
Width: 478
GlyphClass: 2
Flags: W
HStem: -9 90<202.844 367.171> 419 90<202.844 367.171>
VStem: 30 90<166.459 333.541>
LayerCount: 2
Fore
SplineSet
448 73 m 7
 448 58 440 43 428 35 c 4
 387 7 338 -9 285 -9 c 7
 143 -9 30 108 30 250 c 7
 30 392 143 509 285 509 c 7
 338 509 387 493 428 465 c 4
 440 457 448 442 448 427 c 7
 448 402 428 382 403 382 c 7
 394 382 385 385 378 390 c 4
 352 408 319 419 285 419 c 7
 194 419 120 344 120 250 c 7
 120 156 194 81 285 81 c 7
 319 81 352 92 378 110 c 4
 385 115 394 118 403 118 c 7
 428 118 448 98 448 73 c 7
EndSplineSet
EndChar

StartChar: d
Encoding: 100 100 59
Width: 605
GlyphClass: 2
Flags: W
HStem: -9 90<212.397 363.115> 419 90<212.397 363.115> 709 20G<473.5 498.5>
VStem: 43 90<163.23 336.77> 441 90<-2.51944 49 164.695 335.305 451 722.519>
LayerCount: 2
Fore
SplineSet
486 729 m 7
 511 729 531 709 531 684 c 2
 531 36 l 2
 531 11 511 -9 486 -9 c 7
 461 -9 441 11 441 36 c 2
 441 49 l 1
 399 13 346 -9 287 -9 c 3
 151 -9 43 109 43 250 c 3
 43 391 151 509 287 509 c 3
 346 509 399 487 441 451 c 1
 441 684 l 2
 441 709 461 729 486 729 c 7
287 419 m 3
 203 419 133 346 133 250 c 3
 133 154 203 81 287 81 c 3
 371 81 441 154 441 250 c 3
 441 346 371 419 287 419 c 3
EndSplineSet
EndChar

StartChar: e
Encoding: 101 101 60
Width: 549
GlyphClass: 2
Flags: W
HStem: -9 90<212.473 395.32> 220 90<141 413> 419 90<211.634 356.791>
LayerCount: 2
Fore
SplineSet
508 265 m 3
 508 240 488 220 463 220 c 2
 134 220 l 1
 147 140 211 81 287 81 c 3
 369 81 390 96 419 122 c 0
 427 129 437 133 448 133 c 7
 475 133 493 112 493 88 c 7
 493 74 487 62 478 54 c 0
 440 21 384 -9 287 -9 c 3
 150 -9 41 109 41 250 c 3
 41 391 150 509 287 509 c 3
 434 509 508 386 508 265 c 3
141 310 m 1
 413 310 l 1
 399 374 349 419 287 419 c 3
 221 419 163 375 141 310 c 1
EndSplineSet
EndChar

StartChar: f
Encoding: 102 102 65
Width: 355
GlyphClass: 2
Flags: W
HStem: -8 21G<138.5 163.5> -8 21G<138.5 163.5> 413 90<9.48056 106 196 334.519> 635 90<212.032 338.254>
VStem: 106 90<-1.51944 413 503 618.08>
LayerCount: 2
Fore
SplineSet
3 458 m 3xb8
 3 483 23 503 48 503 c 2
 106 503 l 1
 106 568 l 2
 106 654 166 725 265 725 c 3
 304 725 374 709 374 661 c 3
 374 636 354 616 329 616 c 3
 319 616 310 620 303 625 c 0
 296 630 281 635 265 635 c 3
 223 635 196 611 196 568 c 2
 196 503 l 1
 296 503 l 2
 321 503 341 483 341 458 c 3
 341 433 321 413 296 413 c 2
 196 413 l 1
 196 37 l 2
 196 12 176 -8 151 -8 c 7
 126 -8 106 12 106 37 c 2
 106 413 l 1
 48 413 l 2
 23 413 3 433 3 458 c 3xb8
EndSplineSet
EndChar

StartChar: g
Encoding: 103 103 66
Width: 608
GlyphClass: 2
Flags: W
HStem: -194 90<170.655 399.395> -10 90<214.508 366.582> 419 90<214.508 367>
VStem: 43 90<165.208 332.971> 446 90<163.695 334.557 451 490.479>
LayerCount: 2
Fore
SplineSet
536 98 m 2
 536 -52 512 -194 307 -194 c 3
 227 -194 157 -190 93 -138 c 0
 83 -130 76 -117 76 -103 c 7
 76 -78 96 -58 121 -58 c 7
 132 -58 141 -62 149 -68 c 0
 191 -101 226 -104 311 -104 c 3
 411 -104 434 -68 445 48 c 1
 403 12 349 -10 290 -10 c 3
 152 -10 43 108 43 249 c 3
 43 390 152 509 290 509 c 3
 350 509 404 487 446 451 c 1
 446 477 466 497 491 497 c 3
 516 497 536 477 536 452 c 2
 536 98 l 2
290 80 m 3
 374 80 446 153 446 249 c 3
 446 345 374 419 290 419 c 3
 206 419 133 345 133 249 c 3
 133 153 206 80 290 80 c 3
EndSplineSet
EndChar

StartChar: h
Encoding: 104 104 67
Width: 589
GlyphClass: 2
Flags: W
HStem: -7 21G<103.5 128.5 460.5 485.5> 421 90<242.758 383.755> 709 20G<103.5 128.5>
VStem: 71 90<-0.51944 317.832 449 722.519> 428 90<-0.51944 373.612>
LayerCount: 2
Fore
SplineSet
116 -7 m 3
 91 -7 71 13 71 38 c 2
 71 684 l 2
 71 709 91 729 116 729 c 7
 141 729 161 709 161 684 c 2
 161 449 l 1
 201 489 253 511 314 511 c 3
 477 511 518 394 518 252 c 2
 518 38 l 2
 518 13 498 -7 473 -7 c 3
 448 -7 428 13 428 38 c 2
 428 252 l 2
 428 327 422 421 314 421 c 3
 204 421 161 303 161 192 c 2
 161 38 l 2
 161 13 141 -7 116 -7 c 3
EndSplineSet
EndChar

StartChar: dotlessi
Encoding: 305 305 69
Width: 248
GlyphClass: 2
Flags: W
HStem: -6 21G<110.5 135.5> 485 20G<110.5 135.5>
VStem: 79 90<0.48056 498.519>
LayerCount: 2
Fore
SplineSet
169 460 m 2
 169 39 l 2
 169 14 148 -6 123 -6 c 7
 98 -6 79 14 79 39 c 2
 79 460 l 2
 79 485 98 505 123 505 c 7
 148 505 169 485 169 460 c 2
EndSplineSet
EndChar

StartChar: j
Encoding: 106 106 74
Width: 251
Flags: W
HStem: -195 90<-50.5194 64.0188> 487 20G<122.5 147.5> 605 130<79.2461 177.614>
VStem: 63 130<621.85 718.15> 90 90<-81.0175 500.519>
LayerCount: 2
Fore
SplineSet
135 507 m 7xe8
 160 507 180 487 180 462 c 6
 180 23 l 6
 180 -99 145 -195 -12 -195 c 7
 -37 -195 -57 -175 -57 -150 c 7
 -57 -125 -37 -105 -12 -105 c 7
 71 -105 90 -79 90 23 c 6
 90 462 l 6
 90 487 110 507 135 507 c 7xe8
EndSplineSet
Refer: 133 46 S 1 0 0 1 7 609 2
Substitution2: "Single Substitution lookup 4 subtable" uni0237
Substitution2: "Single Substitution lookup 3 subtable" uni0237
EndChar

StartChar: k
Encoding: 107 107 75
Width: 528
GlyphClass: 2
Flags: W
HStem: -7 21G<105.5 130.5 445.5 464> 491 20G<422 441.5> 709 20G<105.5 130.5>
VStem: 73 90<-0.51944 152 276 722.519>
LayerCount: 2
Fore
SplineSet
473 466 m 3
 473 453 468 441 459 433 c 2
 287 270 l 1
 484 70 l 2
 492 62 497 50 497 38 c 7
 497 12 476 -7 452 -7 c 7
 439 -7 428 -2 420 6 c 2
 221 208 l 1
 163 152 l 1
 163 38 l 2
 163 13 143 -7 118 -7 c 3
 93 -7 73 13 73 38 c 2
 73 684 l 2
 73 709 93 729 118 729 c 3
 143 729 163 709 163 684 c 2
 163 276 l 1
 397 499 l 2
 405 507 416 511 428 511 c 3
 455 511 473 490 473 466 c 3
EndSplineSet
EndChar

StartChar: l
Encoding: 108 108 76
Width: 313
GlyphClass: 2
Flags: W
HStem: -9 90<188.266 304.519> 709 20G<105.5 130.5>
VStem: 73 90<103.132 722.519>
LayerCount: 2
Fore
SplineSet
266 81 m 7
 291 81 311 61 311 36 c 7
 311 11 291 -9 266 -9 c 7
 89 -9 73 88 73 300 c 2
 73 684 l 2
 73 709 93 729 118 729 c 7
 143 729 163 709 163 684 c 2
 163 293 l 2
 163 103 164 81 266 81 c 7
EndSplineSet
Substitution2: "'ss02' Estilo 2 lookup 36 subtable" l.ss02
Substitution2: "'aalt' Activar todas las variantes lookup 0 subtable" l.ss02
EndChar

StartChar: m
Encoding: 109 109 77
Width: 886
GlyphClass: 2
Flags: W
HStem: -9 21G<105.5 130.5 430.5 455.5 755.5 780.5> 419 90<240.043 373.339 561.783 698.132>
VStem: 73 90<-2.51944 337.483 415 500.519> 398 90<-2.2868 343.169> 723 90<-2.51944 395.129>
CounterMasks: 1 38
LayerCount: 2
Fore
SplineSet
324 419 m 3
 225 419 163 343 163 250 c 2
 163 36 l 2
 163 11 143 -9 118 -9 c 3
 93 -9 73 11 73 36 c 2
 73 462 l 2
 73 487 93 507 118 507 c 3
 143 507 163 487 163 462 c 2
 163 415 l 1
 194 467 257 509 324 509 c 3
 382 509 442 492 472 430 c 1
 512 476 566 509 649 509 c 7
 788 509 813 394 813 250 c 2
 813 36 l 2
 813 11 793 -9 768 -9 c 3
 743 -9 723 11 723 36 c 2
 723 263 l 2
 723 352 719 419 649 419 c 7
 553 419 488 355 488 252 c 2
 488 36 l 2
 488 12 468 -9 443 -9 c 3
 418 -9 398 11 398 36 c 2
 398 273 l 2
 398 348 391 419 324 419 c 3
EndSplineSet
EndChar

StartChar: n
Encoding: 110 110 78
Width: 589
GlyphClass: 2
Flags: W
HStem: -7 21G<103.5 128.5 460.5 485.5> 421 90<254.11 395.295>
VStem: 71 90<-0.51944 330.634 444 502.519> 428 90<-0.51944 385.628>
LayerCount: 2
Fore
SplineSet
428 257 m 2
 428 328 426 421 340 421 c 3
 242 421 161 341 161 252 c 1
 161 38 l 2
 161 13 141 -7 116 -7 c 3
 91 -7 71 13 71 38 c 2
 71 464 l 2
 71 489 91 509 116 509 c 3
 141 509 161 489 161 464 c 2
 161 444 l 5
 205 483 265 511 340 511 c 3
 467 511 518 418 518 252 c 2
 518 38 l 2
 518 13 498 -7 473 -7 c 3
 448 -7 428 13 428 38 c 2
 428 257 l 2
EndSplineSet
EndChar

StartChar: ntilde
Encoding: 241 241 79
Width: 589
GlyphClass: 2
Flags: W
HStem: -7 21G<103.5 128.5 460.5 485.5> 421 90<254.11 395.295> 607 70<325.185 410.396> 679 70<181.604 266.815>
VStem: 71 90<-0.51944 330.634 444 502.519> 111 58<602.015 668.249> 423 58<687.751 753.985> 428 90<-0.51944 385.628>
LayerCount: 2
Fore
SplineSet
452 755 m 7xf6
 468 755 481 739 481 720 c 7
 481 696 453 607 374 607 c 7
 334 607 311 628 280 648 c 4
 260 661 238 679 218 679 c 7
 191 679 177 656 169 625 c 4
 165 611 153 601 140 601 c 7
 124 601 111 617 111 636 c 7
 111 660 139 749 218 749 c 7
 258 749 281 728 312 708 c 4
 332 695 354 677 374 677 c 7
 401 677 415 700 423 731 c 4
 427 745 439 755 452 755 c 7xf6
EndSplineSet
Refer: 78 110 N 1 0 0 1 0 0 2
EndChar

StartChar: o
Encoding: 111 111 80
Width: 578
GlyphClass: 2
Flags: W
HStem: -9 90<214.336 365.319> 419 90<214.336 365.319>
VStem: 42 90<166.208 333.792> 446 90<166.208 333.792>
LayerCount: 2
Fore
SplineSet
132 250 m 7
 132 154 206 81 290 81 c 7
 374 81 446 154 446 250 c 7
 446 346 374 419 290 419 c 7
 206 419 132 346 132 250 c 7
42 250 m 7
 42 391 152 509 290 509 c 7
 428 509 536 391 536 250 c 7
 536 109 428 -9 290 -9 c 7
 152 -9 42 109 42 250 c 7
EndSplineSet
Substitution2: "Single Substitution lookup 29 subtable" ordmasculine
Substitution2: "'aalt' Activar todas las variantes lookup 0 subtable" ordmasculine
EndChar

StartChar: otilde
Encoding: 245 245 85
Width: 578
GlyphClass: 2
Flags: W
HStem: -9 90<214.336 365.319> 419 90<214.336 365.319> 607 70<317.185 402.396> 679 70<173.604 258.815>
VStem: 42 90<166.208 333.792> 103 58<602.015 668.249> 415 58<687.751 753.985> 446 90<166.208 333.792>
LayerCount: 2
Fore
SplineSet
444 755 m 7xf6
 460 755 473 739 473 720 c 7
 473 696 445 607 366 607 c 7
 326 607 303 628 272 648 c 4
 252 661 230 679 210 679 c 7
 183 679 169 656 161 625 c 4xf6
 157 611 145 601 132 601 c 7xf8
 116 601 103 617 103 636 c 7
 103 660 131 749 210 749 c 7
 250 749 273 728 304 708 c 4
 324 695 346 677 366 677 c 7
 393 677 407 700 415 731 c 4
 419 745 431 755 444 755 c 7xf6
EndSplineSet
Refer: 80 111 N 1 0 0 1 0 0 2
EndChar

StartChar: p
Encoding: 112 112 86
Width: 605
GlyphClass: 2
Flags: W
HStem: -9 90<240.885 391.603> 419 90<240.885 391.603>
VStem: 73 90<-184.519 49 164.695 335.305 451 502.519> 471 90<163.23 336.77>
LayerCount: 2
Fore
SplineSet
118 -191 m 3
 93 -191 73 -171 73 -146 c 2
 73 464 l 2
 73 489 93 509 118 509 c 3
 143 509 163 489 163 464 c 2
 163 451 l 1
 205 487 258 509 317 509 c 3
 453 509 561 391 561 250 c 3
 561 109 453 -9 317 -9 c 3
 258 -9 205 13 163 49 c 1
 163 -146 l 2
 163 -171 143 -191 118 -191 c 3
317 81 m 3
 401 81 471 154 471 250 c 3
 471 346 401 419 317 419 c 3
 233 419 163 346 163 250 c 7
 163 154 233 81 317 81 c 3
EndSplineSet
EndChar

StartChar: q
Encoding: 113 113 87
Width: 605
GlyphClass: 2
Flags: W
HStem: -9 90<212.397 363.115> 419 90<212.397 363.115>
VStem: 43 90<163.23 336.77> 441 90<-184.519 49 164.695 335.305 451 502.519>
LayerCount: 2
Fore
SplineSet
486 -191 m 7
 461 -191 441 -171 441 -146 c 2
 441 49 l 1
 399 13 346 -9 287 -9 c 3
 151 -9 43 109 43 250 c 3
 43 391 151 509 287 509 c 3
 346 509 399 487 441 451 c 1
 441 464 l 2
 441 489 461 509 486 509 c 7
 511 509 531 489 531 464 c 2
 531 -146 l 2
 531 -171 511 -191 486 -191 c 7
287 81 m 3
 371 81 441 154 441 250 c 3
 441 346 371 419 287 419 c 3
 203 419 133 346 133 250 c 3
 133 154 203 81 287 81 c 3
EndSplineSet
EndChar

StartChar: r
Encoding: 114 114 88
Width: 381
GlyphClass: 2
Flags: W
HStem: -7 21G<105.5 130.5> 421 90<252.036 371.519>
VStem: 73 90<-0.51944 326.21 446 502.519>
LayerCount: 2
Fore
SplineSet
333 511 m 3
 358 511 378 491 378 466 c 3
 378 441 358 421 333 421 c 3
 231 421 163 336 163 233 c 2
 163 38 l 2
 163 13 143 -7 118 -7 c 7
 93 -7 73 13 73 38 c 2
 73 464 l 2
 73 489 93 509 118 509 c 7
 143 509 163 489 163 464 c 2
 163 446 l 1
 208 487 267 511 333 511 c 3
EndSplineSet
EndChar

StartChar: s
Encoding: 115 115 89
Width: 495
GlyphClass: 2
Flags: W
HStem: -9 90<161.732 344.551> 419 90<169.504 336.44>
VStem: 64 90<328.86 401.594> 362 90<100.184 176.413>
LayerCount: 2
Fore
SplineSet
248 -9 m 3
 191 -9 42 38 42 103 c 7
 42 130 64 148 88 148 c 7
 100 148 110 143 118 136 c 0
 155 102 188 81 248 81 c 3
 299 81 362 87 362 142 c 3
 362 189 274 205 230 215 c 0
 144 235 64 274 64 371 c 3
 64 471 167 509 252 509 c 3
 309 509 440 472 440 413 c 3
 440 387 419 368 396 368 c 3
 387 368 377 370 370 375 c 0
 329 402 311 419 252 419 c 3
 217 419 154 406 154 371 c 3
 154 319 202 317 258 301 c 0
 387 263 452 229 452 141 c 3
 452 23 337 -9 248 -9 c 3
EndSplineSet
EndChar

StartChar: t
Encoding: 116 116 90
Width: 373
GlyphClass: 2
Flags: W
HStem: -9 90<220.438 375.519> 409 90<1.48056 104 194 355.519>
VStem: 104 90<105.038 409 499 650.519>
LayerCount: 2
Fore
SplineSet
104 216 m 2
 104 409 l 1
 40 409 l 2
 15 409 -5 429 -5 454 c 3
 -5 479 15 499 40 499 c 2
 104 499 l 1
 104 612 l 2
 104 637 124 657 149 657 c 7
 174 657 194 637 194 612 c 2
 194 499 l 1
 317 499 l 2
 342 499 362 479 362 454 c 3
 362 429 342 409 317 409 c 2
 194 409 l 1
 194 216 l 2
 194 94 208 81 337 81 c 3
 362 81 382 61 382 36 c 3
 382 11 362 -9 337 -9 c 3
 147 -9 104 49 104 216 c 2
EndSplineSet
EndChar

StartChar: u
Encoding: 117 117 91
Width: 582
GlyphClass: 2
Flags: W
HStem: -9 90<192.292 352.436> -7 21G<453.5 478.5> 489 20G<103.5 128.5 453.5 478.5>
VStem: 70 90<116.372 502.519> 422 90<-0.51944 58 152.755 502.519>
LayerCount: 2
Fore
SplineSet
248 81 m 3xb8
 346 81 422 119 422 250 c 2
 422 464 l 2
 422 489 441 509 466 509 c 3
 491 509 512 489 512 464 c 2
 512 38 l 2
 512 13 491 -7 466 -7 c 7x78
 441 -7 422 13 422 38 c 2
 422 58 l 1
 378 19 323 -9 248 -9 c 3
 121 -9 70 84 70 250 c 2
 70 464 l 2
 70 489 91 509 116 509 c 3
 141 509 160 489 160 464 c 2
 160 245 l 2
 160 146 173 81 248 81 c 3xb8
EndSplineSet
EndChar

StartChar: v
Encoding: 118 118 96
Width: 532
GlyphClass: 2
Flags: W
HStem: -7 21G<257 275> 487 20G<57.5 79 453 474.5>
LayerCount: 2
Fore
SplineSet
24 462 m 3
 24 486 45 507 70 507 c 3
 88 507 103 496 110 481 c 2
 266 145 l 1
 422 481 l 2
 429 496 444 507 462 507 c 3
 487 507 508 486 508 462 c 3
 508 456 507 449 504 443 c 2
 306 19 l 2
 299 4 284 -7 266 -7 c 7
 248 -7 233 4 226 19 c 2
 28 443 l 2
 25 449 24 456 24 462 c 3
EndSplineSet
EndChar

StartChar: w
Encoding: 119 119 97
Width: 866
GlyphClass: 2
Flags: W
HStem: -7 21G<247.5 265.5 600.5 618.5> 487 20G<68 89.5 775.5 797>
LayerCount: 2
Fore
SplineSet
651 21 m 2
 644 5 628 -7 609 -7 c 3
 592 -7 577 3 569 17 c 2
 433 273 l 1
 296 17 l 2
 288 3 274 -7 257 -7 c 3
 238 -7 222 5 215 21 c 2
 39 445 l 2
 37 451 35 456 35 462 c 3
 35 486 56 507 80 507 c 3
 99 507 115 495 122 479 c 2
 262 143 l 1
 393 390 l 2
 401 404 416 414 433 414 c 3
 450 414 465 404 473 390 c 2
 604 143 l 1
 744 479 l 2
 751 495 766 507 785 507 c 7
 809 507 831 486 831 462 c 7
 831 456 829 451 827 445 c 2
 651 21 l 2
EndSplineSet
EndChar

StartChar: x
Encoding: 120 120 98
Width: 546
GlyphClass: 2
Flags: W
HStem: -6 21G<76.5 97 449 469.5> 492 20G<89.5 109 436 455.5>
LayerCount: 2
Fore
SplineSet
102 512 m 3
 116 512 128 506 136 496 c 2
 273 330 l 1
 409 496 l 2
 417 506 429 512 443 512 c 3
 468 512 489 493 489 467 c 3
 489 456 484 446 478 438 c 2
 331 260 l 1
 490 68 l 2
 496 60 501 50 501 39 c 3
 501 16 483 -6 456 -6 c 3
 442 -6 429 0 421 10 c 2
 273 189 l 1
 124 10 l 2
 116 0 104 -6 90 -6 c 7
 63 -6 45 16 45 39 c 7
 45 50 49 60 55 68 c 2
 214 260 l 1
 67 438 l 2
 61 446 57 456 57 467 c 3
 57 493 77 512 102 512 c 3
EndSplineSet
EndChar

StartChar: y
Encoding: 121 121 99
Width: 532
GlyphClass: 2
Flags: W
HStem: 487 20G<56.5 78 454 477>
LayerCount: 2
Fore
SplineSet
109 482 m 2
 266 163 l 1
 422 482 l 2
 429 497 445 507 463 507 c 3
 491 507 508 484 508 462 c 3
 508 455 506 448 503 442 c 2
 205 -165 l 2
 198 -180 182 -190 164 -190 c 7
 136 -190 120 -167 120 -145 c 7
 120 -138 121 -132 124 -126 c 2
 216 61 l 1
 29 442 l 2
 26 448 24 455 24 462 c 3
 24 487 44 507 69 507 c 3
 87 507 102 497 109 482 c 2
EndSplineSet
EndChar

StartChar: z
Encoding: 122 122 100
Width: 479
GlyphClass: 2
Flags: W
HStem: 0 90<182 452.519> 410 90<60.4806 315>
LayerCount: 2
Fore
SplineSet
99 500 m 2
 406 500 l 2
 431 500 451 480 451 455 c 3
 451 445 448 436 442 428 c 2
 182 90 l 1
 414 90 l 2
 439 90 459 70 459 45 c 7
 459 20 439 0 414 0 c 2
 91 0 l 2
 66 0 46 20 46 45 c 7
 46 55 49 64 55 72 c 2
 315 410 l 1
 99 410 l 2
 74 410 54 430 54 455 c 3
 54 480 74 500 99 500 c 2
EndSplineSet
EndChar

StartChar: zero
Encoding: 48 48 103
Width: 614
Flags: W
HStem: -9 92<233.875 380.125> 639 92<236.087 377.913>
VStem: 49 92<211.132 509.444> 473 92<211.132 509.444>
LayerCount: 2
Fore
SplineSet
307 731 m 3
 493 731 565 536 565 360 c 3
 565 184 493 -9 307 -9 c 3
 121 -9 49 184 49 360 c 3
 49 536 121 731 307 731 c 3
307 639 m 3
 172 639 141 463 141 360 c 3
 141 257 172 83 307 83 c 3
 442 83 473 257 473 360 c 3
 473 463 442 639 307 639 c 3
EndSplineSet
Substitution2: "'onum' Cifras estilo antiguo lookup 31 subtable" zero.tosf
Substitution2: "'frac' Fracciones lookup 24 subtable" zero.numr
Substitution2: "'dnom' Denominadores lookup 22 subtable" zero.dnom
Substitution2: "'numr' Numeradores lookup 21 subtable" zero.numr
Substitution2: "'sups' Supra+AO0A-ndice lookup 20 subtable" uni2070
Substitution2: "'sinf' +AM0A-ndices cient+AO0A-ficos lookup 19 subtable" uni2080
Substitution2: "'subs' Sub+AO0A-ndice lookup 18 subtable" uni2080
AlternateSubs2: "'aalt' Activar todas las variantes lookup 1 subtable" zero.tosf uni2080 zero.dnom zero.numr uni2070
EndChar

StartChar: one
Encoding: 49 49 104
Width: 614
Flags: W
HStem: 0 92<140.521 276 369 504.479> 709 20G<318.5 336>
VStem: 276 93<92 599>
LayerCount: 2
Fore
SplineSet
369 683 m 2
 369 92 l 1
 465 92 l 2
 491 92 511 72 511 46 c 7
 511 20 491 0 465 0 c 2
 180 0 l 2
 154 0 134 20 134 46 c 7
 134 72 154 92 180 92 c 2
 276 92 l 1
 276 599 l 1
 174 534 l 2
 167 530 159 525 150 525 c 3
 123 525 103 546 103 571 c 3
 103 587 112 602 124 610 c 2
 298 722 l 2
 305 726 314 729 323 729 c 3
 349 729 369 709 369 683 c 2
EndSplineSet
Substitution2: "'ss01' Estilo 1 lookup 35 subtable" one.ss01
Substitution2: "'salt' Alternativas estil+AO0A-sticas lookup 34 subtable" one.ss01
Substitution2: "'onum' Cifras estilo antiguo lookup 31 subtable" one.tosf
Substitution2: "'frac' Fracciones lookup 24 subtable" one.numr
Substitution2: "'dnom' Denominadores lookup 22 subtable" one.dnom
Substitution2: "'numr' Numeradores lookup 21 subtable" one.numr
Substitution2: "'sups' Supra+AO0A-ndice lookup 20 subtable" uni00B9
Substitution2: "'sinf' +AM0A-ndices cient+AO0A-ficos lookup 19 subtable" uni2081
Substitution2: "'subs' Sub+AO0A-ndice lookup 18 subtable" uni2081
AlternateSubs2: "'aalt' Activar todas las variantes lookup 1 subtable" one.ss01 one.tosf uni2081 one.dnom one.numr uni00B9
EndChar

StartChar: two
Encoding: 50 50 105
Width: 614
Flags: W
HStem: 0 92<155 550.479> 641 92<224.061 391.672>
VStem: 446 93<476.625 590.159>
LayerCount: 2
Fore
SplineSet
539 524 m 3
 539 466 504 419 463 383 c 0
 422 347 372 316 325 283 c 0
 278 250 232 215 200 176 c 0
 178 149 163 123 155 92 c 1
 511 92 l 2
 537 92 557 72 557 46 c 7
 557 20 537 0 511 0 c 2
 103 0 l 2
 77 0 57 20 57 46 c 3
 57 122 88 186 129 236 c 0
 170 286 221 323 271 358 c 0
 321 393 369 424 401 453 c 0
 433 482 446 502 446 524 c 3
 446 602 378 641 307 641 c 3
 253 641 179 604 145 554 c 0
 136 540 125 527 103 527 c 3
 73 527 57 553 57 573 c 3
 57 643 203 733 307 733 c 3
 444 733 539 636 539 524 c 3
EndSplineSet
Substitution2: "'onum' Cifras estilo antiguo lookup 31 subtable" two.tosf
Substitution2: "'frac' Fracciones lookup 24 subtable" two.numr
Substitution2: "'dnom' Denominadores lookup 22 subtable" two.dnom
Substitution2: "'numr' Numeradores lookup 21 subtable" two.numr
Substitution2: "'sups' Supra+AO0A-ndice lookup 20 subtable" uni00B2
Substitution2: "'sinf' +AM0A-ndices cient+AO0A-ficos lookup 19 subtable" uni2082
Substitution2: "'subs' Sub+AO0A-ndice lookup 18 subtable" uni2082
AlternateSubs2: "'aalt' Activar todas las variantes lookup 1 subtable" two.tosf uni2082 two.dnom two.numr uni00B2
EndChar

StartChar: three
Encoding: 51 51 106
Width: 614
Flags: W
HStem: -9 92<193.451 405.436> 324 92<190.805 393> 639 92<199.742 400.434>
VStem: 58 88<123.086 165.944> 445 93<460.395 598.406> 464 92<132.405 270.495>
LayerCount: 2
Fore
SplineSet
120 571 m 3xf8
 94 571 74 590 74 617 c 3
 74 685 221 731 288 731 c 3
 430 731 538 678 538 530 c 3xf8
 538 458 503 408 450 373 c 1
 511 341 556 272 556 194 c 7
 556 40 422 -9 288 -9 c 7
 173 -9 58 64 58 126 c 3
 58 154 78 172 104 172 c 3
 121 172 138 161 146 145 c 0
 157 121 214 83 288 83 c 7
 379 83 464 107 464 194 c 7xf4
 464 241 447 279 407 299 c 0
 367 319 302 324 229 324 c 3
 203 324 184 343 184 369 c 3
 184 395 203 416 229 416 c 3
 302 416 360 419 395 439 c 0
 430 459 445 481 445 530 c 3
 445 628 363 639 288 639 c 3
 236 639 172 606 157 591 c 0
 146 580 134 571 120 571 c 3xf8
EndSplineSet
Substitution2: "'onum' Cifras estilo antiguo lookup 31 subtable" three.tosf
Substitution2: "'frac' Fracciones lookup 24 subtable" three.numr
Substitution2: "'dnom' Denominadores lookup 22 subtable" three.dnom
Substitution2: "'numr' Numeradores lookup 21 subtable" three.numr
Substitution2: "'sups' Supra+AO0A-ndice lookup 20 subtable" uni00B3
Substitution2: "'sinf' +AM0A-ndices cient+AO0A-ficos lookup 19 subtable" uni2083
Substitution2: "'subs' Sub+AO0A-ndice lookup 18 subtable" uni2083
AlternateSubs2: "'aalt' Activar todas las variantes lookup 1 subtable" three.tosf uni2083 three.dnom three.numr uni00B3
EndChar

StartChar: four
Encoding: 52 52 107
Width: 614
Flags: W
HStem: -7 21G<419 445> 203 92<176 386 478 575.479> 709 20G<425 445>
VStem: 386 92<-0.478821 203 295 553>
LayerCount: 2
Fore
SplineSet
478 683 m 2
 478 295 l 1
 536 295 l 2
 562 295 582 275 582 249 c 3
 582 223 562 203 536 203 c 2
 478 203 l 1
 478 39 l 2
 478 13 458 -7 432 -7 c 7
 406 -7 386 13 386 39 c 2
 386 203 l 1
 78 203 l 2
 52 203 32 223 32 249 c 3
 32 260 36 270 42 278 c 2
 396 712 l 2
 404 722 418 729 432 729 c 3
 458 729 478 709 478 683 c 2
386 553 m 1
 176 295 l 1
 386 295 l 1
 386 553 l 1
EndSplineSet
Substitution2: "'onum' Cifras estilo antiguo lookup 31 subtable" four.tosf
Substitution2: "'frac' Fracciones lookup 24 subtable" four.numr
Substitution2: "'dnom' Denominadores lookup 22 subtable" four.dnom
Substitution2: "'numr' Numeradores lookup 21 subtable" four.numr
Substitution2: "'sups' Supra+AO0A-ndice lookup 20 subtable" uni2074
Substitution2: "'sinf' +AM0A-ndices cient+AO0A-ficos lookup 19 subtable" uni2084
Substitution2: "'subs' Sub+AO0A-ndice lookup 18 subtable" uni2084
AlternateSubs2: "'aalt' Activar todas las variantes lookup 1 subtable" four.tosf uni2084 four.dnom four.numr uni2074
EndChar

StartChar: five
Encoding: 53 53 108
Width: 614
Flags: W
HStem: -9 92<162.991 361.563> 391 92<187.726 388.254> 630 92<188 491.752>
VStem: 463 92<171.692 324.149>
LayerCount: 2
Fore
SplineSet
453 722 m 2
 479 722 498 702 498 676 c 3
 498 650 479 630 453 630 c 2
 188 630 l 1
 162 459 l 1
 206 472 254 483 303 483 c 3
 437 483 555 391 555 256 c 3
 555 78 414 -9 248 -9 c 3
 197 -9 61 25 61 88 c 7
 61 115 80 134 106 134 c 7
 118 134 129 129 139 121 c 0
 169 97 211 83 248 83 c 3
 387 83 463 155 463 256 c 3
 463 345 376 391 303 391 c 3
 220 391 137 345 106 345 c 3
 81 345 59 365 59 391 c 3
 59 406 88 586 102 683 c 0
 105 706 124 722 147 722 c 2
 453 722 l 2
EndSplineSet
Substitution2: "'onum' Cifras estilo antiguo lookup 31 subtable" five.tosf
Substitution2: "'frac' Fracciones lookup 24 subtable" five.numr
Substitution2: "'dnom' Denominadores lookup 22 subtable" five.dnom
Substitution2: "'numr' Numeradores lookup 21 subtable" five.numr
Substitution2: "'sups' Supra+AO0A-ndice lookup 20 subtable" uni2075
Substitution2: "'sinf' +AM0A-ndices cient+AO0A-ficos lookup 19 subtable" uni2085
Substitution2: "'subs' Sub+AO0A-ndice lookup 18 subtable" uni2085
AlternateSubs2: "'aalt' Activar todas las variantes lookup 1 subtable" five.tosf uni2085 five.dnom five.numr uni2075
EndChar

StartChar: six
Encoding: 54 54 109
Width: 614
Flags: W
HStem: -9 92<227.838 400.131> 372 92<231.959 403.748> 712 20G<414 429.5>
VStem: 53 103<151.413 357.429> 469 92<150.505 307.71>
LayerCount: 2
Fore
SplineSet
461 686 m 3
 461 666 446 646 426 641 c 0
 281 604 199 517 164 394 c 1
 204 434 254 464 311 464 c 3
 453 464 561 358 561 227 c 3
 561 95 449 -9 307 -9 c 3
 160 -9 53 116 53 248 c 3
 53 487 162 670 403 731 c 0
 407 732 412 732 416 732 c 7
 443 732 461 711 461 686 c 3
156 227 m 3
 156 137 233 83 307 83 c 3
 408 83 469 143 469 227 c 3
 469 311 413 372 313 372 c 3
 229 372 156 307 156 227 c 3
EndSplineSet
Substitution2: "'onum' Cifras estilo antiguo lookup 31 subtable" six.tosf
Substitution2: "'frac' Fracciones lookup 24 subtable" six.numr
Substitution2: "'dnom' Denominadores lookup 22 subtable" six.dnom
Substitution2: "'numr' Numeradores lookup 21 subtable" six.numr
Substitution2: "'sups' Supra+AO0A-ndice lookup 20 subtable" uni2076
Substitution2: "'sinf' +AM0A-ndices cient+AO0A-ficos lookup 19 subtable" uni2086
Substitution2: "'subs' Sub+AO0A-ndice lookup 18 subtable" uni2086
AlternateSubs2: "'aalt' Activar todas las variantes lookup 1 subtable" six.tosf uni2086 six.dnom six.numr uni2076
EndChar

StartChar: seven
Encoding: 55 55 110
Width: 614
Flags: W
HStem: -7 21G<134.5 156> 630 92<63.5212 432>
LayerCount: 2
Fore
SplineSet
511 722 m 2
 538 722 557 701 557 676 c 3
 557 669 555 660 551 653 c 2
 188 16 l 2
 180 1 164 -7 148 -7 c 7
 121 -7 102 13 102 39 c 7
 102 47 105 54 109 61 c 2
 432 630 l 1
 103 630 l 2
 77 630 57 650 57 676 c 3
 57 702 77 722 103 722 c 2
 511 722 l 2
EndSplineSet
Substitution2: "'onum' Cifras estilo antiguo lookup 31 subtable" seven.tosf
Substitution2: "'frac' Fracciones lookup 24 subtable" seven.numr
Substitution2: "'dnom' Denominadores lookup 22 subtable" seven.dnom
Substitution2: "'numr' Numeradores lookup 21 subtable" seven.numr
Substitution2: "'sups' Supra+AO0A-ndice lookup 20 subtable" uni2077
Substitution2: "'sinf' +AM0A-ndices cient+AO0A-ficos lookup 19 subtable" uni2087
Substitution2: "'subs' Sub+AO0A-ndice lookup 18 subtable" uni2087
AlternateSubs2: "'aalt' Activar todas las variantes lookup 1 subtable" seven.tosf uni2087 seven.dnom seven.numr uni2077
EndChar

StartChar: eight
Encoding: 56 56 111
Width: 614
Flags: W
HStem: -9 92<218.173 396.007> 318 95<224.682 389.635> 638 92<225.898 388.102>
VStem: 58 93<142.283 260.21> 83 92<460.217 591.009> 439 92<460.217 591.009> 464 92<142.283 260.21>
LayerCount: 2
Fore
SplineSet
307 730 m 7xe8
 427 730 531 654 531 525 c 3xec
 531 457 503 404 458 369 c 1
 515 333 556 277 556 201 c 3
 556 68 426 -9 307 -9 c 7
 188 -9 58 68 58 201 c 3xf2
 58 277 100 333 157 369 c 1
 112 404 83 457 83 525 c 3
 83 654 187 730 307 730 c 7xe8
307 638 m 7
 228 638 175 592 175 525 c 3
 175 458 228 413 307 413 c 7
 386 413 439 458 439 525 c 3
 439 592 386 638 307 638 c 7
307 318 m 7
 232 318 151 273 151 201 c 3
 151 129 232 83 307 83 c 7
 382 83 464 129 464 201 c 3xf2
 464 273 382 318 307 318 c 7
EndSplineSet
Substitution2: "'onum' Cifras estilo antiguo lookup 31 subtable" eight.tosf
Substitution2: "'frac' Fracciones lookup 24 subtable" eight.numr
Substitution2: "'dnom' Denominadores lookup 22 subtable" eight.dnom
Substitution2: "'numr' Numeradores lookup 21 subtable" eight.numr
Substitution2: "'sups' Supra+AO0A-ndice lookup 20 subtable" uni2078
Substitution2: "'sinf' +AM0A-ndices cient+AO0A-ficos lookup 19 subtable" uni2088
Substitution2: "'subs' Sub+AO0A-ndice lookup 18 subtable" uni2088
AlternateSubs2: "'aalt' Activar todas las variantes lookup 1 subtable" eight.tosf uni2088 eight.dnom eight.numr uni2078
EndChar

StartChar: period
Encoding: 46 46 133
Width: 242
Flags: W
HStem: -4 130<72.2461 170.614>
VStem: 56 130<12.8503 109.15>
LayerCount: 2
Fore
SplineSet
186 61 m 7
 186 25 158 -4 122 -4 c 7
 86 -4 56 25 56 61 c 7
 56 97 86 126 122 126 c 7
 158 126 186 97 186 61 c 7
EndSplineSet
EndChar

StartChar: comma
Encoding: 44 44 134
Width: 242
Flags: W
HStem: -120 246<120.317 141.274>
VStem: 56 130<12.4971 108.676>
LayerCount: 2
Fore
SplineSet
186 53 m 0
 186 -16 167 -73 130 -111 c 0
 125 -117 114 -120 106 -120 c 7
 88 -120 76 -105 76 -89 c 7
 76 -81 79 -73 84 -68 c 0
 98 -53 113 -31 120 -5 c 1
 85 -3 56 25 56 60 c 0
 56 96 86 126 122 126 c 3
 158 126 186 98 186 53 c 0
EndSplineSet
EndChar

StartChar: exclam
Encoding: 33 33 137
Width: 242
Flags: W
HStem: -4 130<72.2461 170.614> 709 20G<103.5 140.5>
VStem: 56 130<12.8503 109.15> 64 116<388.496 717.832>
LayerCount: 2
Fore
SplineSet
122 729 m 3xd0
 159 729 180 702 180 668 c 0
 180 613 157 247 156 231 c 0
 155 207 144 195 122 195 c 3
 100 195 87 207 86 231 c 0
 85 247 64 613 64 668 c 0
 64 702 85 729 122 729 c 3xd0
186 61 m 3xe0
 186 25 158 -4 122 -4 c 3
 86 -4 56 25 56 61 c 3
 56 97 86 126 122 126 c 3
 158 126 186 97 186 61 c 3xe0
EndSplineSet
EndChar

StartChar: question
Encoding: 63 63 139
Width: 460
Flags: W
HStem: -4 102<159.49 244.51> 179 196<162.521 241.371> 639 92<132.065 304.678>
VStem: 151 102<4.49023 89.5098 188.628 293.297> 355 92<444.714 585.547>
LayerCount: 2
Fore
SplineSet
92 581 m 0
 84 572 72 566 59 566 c 3
 31 566 13 587 13 612 c 3
 13 624 18 636 26 644 c 0
 94 715 160 731 243 731 c 3
 370 731 447 619 447 516 c 3
 447 394 357 309 248 287 c 1
 248 225 l 2
 248 199 228 179 202 179 c 3
 176 179 156 199 156 225 c 2
 156 329 l 2
 156 355 176 375 202 375 c 3
 270 375 355 425 355 516 c 3
 355 579 305 639 242 639 c 3
 166 639 147 638 92 581 c 0
151 47 m 3
 151 76 173 98 202 98 c 3
 231 98 253 76 253 47 c 3
 253 18 231 -4 202 -4 c 3
 173 -4 151 18 151 47 c 3
EndSplineSet
EndChar

StartChar: asterisk
Encoding: 42 42 142
Width: 462
Flags: W
VStem: 184 94<352.099 465 624 736.901>
LayerCount: 2
Fore
SplineSet
278 391 m 2
 278 365 256 345 230 345 c 3
 204 345 184 365 184 391 c 2
 184 465 l 1
 122 428 l 2
 115 424 106 422 98 422 c 3
 71 422 52 441 52 467 c 3
 52 483 62 499 76 507 c 2
 138 545 l 1
 76 582 l 2
 62 590 52 606 52 622 c 7
 52 648 71 668 98 668 c 7
 106 668 115 664 122 660 c 2
 184 624 l 1
 184 698 l 2
 184 724 204 744 230 744 c 3
 256 744 278 724 278 698 c 2
 278 624 l 1
 340 660 l 2
 347 664 356 668 364 668 c 3
 391 668 410 648 410 622 c 3
 410 606 400 590 386 582 c 2
 324 545 l 1
 386 507 l 2
 400 499 410 483 410 467 c 3
 410 441 391 422 364 422 c 3
 356 422 347 424 340 428 c 2
 278 465 l 1
 278 391 l 2
EndSplineSet
EndChar

StartChar: numbersign
Encoding: 35 35 143
Width: 614
Flags: W
HStem: -7 21G<191 217 397 423> 186 93<43.0992 158 250 364 456 570.312> 446 93<43.0992 158 250 364 456 570.312> 709 20G<191 217 397 423>
VStem: 158 92<-0.478821 186 279 446 539 722.479> 364 92<-0.478821 186 279 446 539 722.479>
LayerCount: 2
Fore
SplineSet
204 729 m 3
 230 729 250 709 250 683 c 2
 250 539 l 1
 364 539 l 1
 364 683 l 2
 364 709 384 729 410 729 c 3
 436 729 456 709 456 683 c 2
 456 539 l 1
 530 539 l 2
 556 539 578 519 578 493 c 7
 578 467 556 446 530 446 c 2
 456 446 l 1
 456 279 l 1
 530 279 l 2
 556 279 578 258 578 232 c 7
 578 206 556 186 530 186 c 2
 456 186 l 1
 456 39 l 2
 456 13 436 -7 410 -7 c 3
 384 -7 364 13 364 39 c 2
 364 186 l 1
 250 186 l 1
 250 39 l 2
 250 13 230 -7 204 -7 c 3
 178 -7 158 13 158 39 c 2
 158 186 l 1
 82 186 l 2
 56 186 36 206 36 232 c 3
 36 258 56 279 82 279 c 2
 158 279 l 1
 158 446 l 1
 82 446 l 2
 56 446 36 467 36 493 c 3
 36 519 56 539 82 539 c 2
 158 539 l 1
 158 683 l 2
 158 709 178 729 204 729 c 3
250 446 m 1
 250 279 l 1
 364 279 l 1
 364 446 l 1
 250 446 l 1
EndSplineSet
EndChar

StartChar: slash
Encoding: 47 47 144
Width: 304
Flags: W
VStem: 225 90<714.204 762.479>
LayerCount: 2
Fore
SplineSet
315 723 m 3
 315 719 313 713 312 709 c 2
 79 -33 l 2
 73 -52 55 -65 36 -65 c 3
 7 -65 -11 -41 -11 -18 c 7
 -11 -14 -9 -8 -8 -4 c 2
 225 737 l 2
 231 756 250 769 269 769 c 3
 295 769 315 749 315 723 c 3
EndSplineSet
Substitution2: "'frac' Fracciones lookup 23 subtable" fraction
Substitution2: "'aalt' Activar todas las variantes lookup 0 subtable" fraction
EndChar

StartChar: backslash
Encoding: 92 92 145
Width: 304
Flags: W
VStem: -10 324
LayerCount: 2
Fore
SplineSet
34 768 m 3
 54 768 72 755 78 737 c 2
 312 -3 l 2
 314 -8 314 -12 314 -17 c 7
 314 -42 294 -62 270 -62 c 7
 250 -62 232 -49 226 -31 c 2
 -8 709 l 2
 -10 714 -10 718 -10 723 c 3
 -10 748 10 768 34 768 c 3
EndSplineSet
EndChar

StartChar: parenleft
Encoding: 40 40 146
Width: 371
Flags: W
VStem: 58 92<129.715 398.712>
LayerCount: 2
Fore
SplineSet
325 719 m 7
 353 719 371 699 371 673 c 7
 371 658 363 643 351 635 c 4
 220 545 150 402 150 264 c 7
 150 126 220 -15 351 -105 c 4
 363 -113 371 -128 371 -143 c 7
 371 -169 353 -189 325 -189 c 7
 316 -189 307 -186 300 -181 c 4
 143 -75 58 95 58 264 c 7
 58 433 143 605 300 711 c 4
 307 716 316 719 325 719 c 7
EndSplineSet
EndChar

StartChar: braceleft
Encoding: 123 123 148
Width: 378
Flags: W
HStem: -184 89<280.471 370.929> 224 90<47.2073 141.356> 633 89<280.471 370.929>
VStem: 158 90<-61.5471 209.721 328.279 599.547>
CounterMasks: 1 e0
LayerCount: 2
Fore
SplineSet
328 722 m 3
 357 722 377 704 377 677 c 3
 377 655 358 633 339 633 c 3
 256 633 248 554 248 489 c 3
 248 472 248 456 248 443 c 3
 248 353 241 304 170 269 c 1
 241 234 248 185 248 95 c 7
 248 82 248 66 248 49 c 7
 248 -16 256 -95 339 -95 c 7
 358 -95 377 -117 377 -139 c 7
 377 -166 357 -184 328 -184 c 7
 219 -184 158 -78 158 34 c 7
 158 202 152 224 85 224 c 3
 60 224 41 244 41 269 c 3
 41 294 60 314 85 314 c 3
 152 314 158 336 158 504 c 3
 158 616 219 722 328 722 c 3
EndSplineSet
EndChar

StartChar: bracketleft
Encoding: 91 91 150
Width: 340
Flags: W
HStem: -184 90<201 332.519> 632 90<201 332.519>
VStem: 111 228<-177.519 -100.481 638.481 715.519> 111 90<-94 632>
LayerCount: 2
Fore
SplineSet
201 -94 m 1xd0
 294 -94 l 2
 319 -94 339 -114 339 -139 c 7
 339 -164 319 -184 294 -184 c 2
 156 -184 l 2
 131 -184 111 -164 111 -139 c 2
 111 677 l 2
 111 702 131 722 156 722 c 2
 294 722 l 2
 319 722 339 702 339 677 c 7xe0
 339 652 319 632 294 632 c 2
 201 632 l 1
 201 -94 l 1xd0
EndSplineSet
EndChar

StartChar: hyphen
Encoding: 45 45 152
Width: 614
Flags: W
HStem: 245 92<56.5212 557.479>
LayerCount: 2
Fore
SplineSet
518 337 m 2
 544 337 564 317 564 291 c 7
 564 265 544 245 518 245 c 2
 96 245 l 2
 70 245 50 265 50 291 c 7
 50 317 70 337 96 337 c 2
 518 337 l 2
EndSplineSet
EndChar

StartChar: underscore
Encoding: 95 95 154
Width: 512
Flags: W
HStem: -78 90<19.4806 492.519>
LayerCount: 2
Fore
SplineSet
58 12 m 2
 454 12 l 2
 479 12 499 -7 499 -32 c 3
 499 -57 479 -78 454 -78 c 2
 58 -78 l 2
 33 -78 13 -57 13 -32 c 3
 13 -7 33 12 58 12 c 2
EndSplineSet
EndChar

StartChar: quotesingle
Encoding: 39 39 156
Width: 236
Flags: W
HStem: 425 304<78.7944 157.752>
VStem: 72 92<432.099 721.901>
LayerCount: 2
Fore
SplineSet
119 729 m 7
 145 729 164 709 164 683 c 2
 164 471 l 2
 164 445 145 425 119 425 c 7
 93 425 72 445 72 471 c 2
 72 683 l 2
 72 709 93 729 119 729 c 7
EndSplineSet
EndChar

StartChar: cent
Encoding: 162 162 159
Width: 614
Flags: W
HStem: -8 91<375 438.273> 417 91<375 438.273>
VStem: 98 90<164.939 335.061> 285 90<-118.519 -4.9728 96 404 504.973 623.519>
LayerCount: 2
Fore
SplineSet
330 630 m 7
 355 630 375 610 375 585 c 2
 375 508 l 1
 419 504 461 489 496 465 c 0
 508 457 516 442 516 427 c 3
 516 402 496 382 471 382 c 3
 462 382 453 385 446 390 c 0
 426 404 401 413 375 417 c 1
 375 83 l 1
 401 87 426 96 446 110 c 0
 453 115 462 118 471 118 c 3
 496 118 516 98 516 73 c 3
 516 58 508 43 496 35 c 0
 461 11 419 -4 375 -8 c 1
 375 -80 l 2
 375 -105 355 -125 330 -125 c 7
 305 -125 285 -105 285 -80 c 2
 285 0 l 1
 177 30 98 132 98 250 c 3
 98 368 177 470 285 500 c 1
 285 585 l 2
 285 610 305 630 330 630 c 7
285 404 m 1
 228 378 188 319 188 250 c 3
 188 181 228 122 285 96 c 1
 285 404 l 1
EndSplineSet
EndChar

StartChar: dollar
Encoding: 36 36 160
Width: 614
Flags: W
HStem: 6 91<187.541 261 353 416.854> 331 96<353 401.085> 666 91<211.771 261 353 423.324>
VStem: 60 93<500.994 615.941> 261 92<-118.479 8.54895 100 331 450 660 755.038 840.479> 478 92<150.549 263.451>
LayerCount: 2
Fore
SplineSet
353 801 m 2
 353 757 l 1
 413 753 474 732 545 664 c 0
 554 656 559 644 559 631 c 3
 559 604 539 585 513 585 c 3
 501 585 488 589 480 597 c 0
 421 653 396 664 353 666 c 1
 353 427 l 1
 455 401 570 322 570 214 c 3
 570 80 458 17 353 7 c 1
 353 -79 l 2
 353 -105 333 -125 307 -125 c 3
 281 -125 261 -105 261 -79 c 2
 261 6 l 1
 198 12 128 33 58 101 c 0
 49 109 44 122 44 135 c 7
 44 163 65 181 90 181 c 7
 102 181 114 176 122 168 c 0
 176 116 216 101 261 97 c 1
 261 353 l 1
 153 378 60 454 60 555 c 3
 60 671 153 742 261 754 c 1
 261 801 l 2
 261 827 281 847 307 847 c 3
 333 847 353 827 353 801 c 2
153 555 m 3
 153 495 220 464 261 450 c 1
 261 660 l 1
 203 651 153 616 153 555 c 3
353 100 m 1
 416 104 478 143 478 214 c 3
 478 269 402 315 353 331 c 1
 353 100 l 1
EndSplineSet
EndChar

StartChar: Euro
Encoding: 8364 8364 161
Width: 614
Flags: W
HStem: -9 90<323.045 473.277> 236 90<21.4806 114 224 393.519> 396 90<21.4806 114 224 393.519> 641 90<323.78 473.277>
VStem: 113 90<326 396>
LayerCount: 2
Fore
SplineSet
588 637 m 0
 595 629 599 619 599 608 c 3
 599 581 578 563 554 563 c 3
 540 563 528 568 520 578 c 0
 484 620 441 641 398 641 c 3
 311 641 252 564 224 486 c 1
 355 486 l 2
 380 486 400 466 400 441 c 3
 400 416 380 396 355 396 c 2
 205 396 l 1
 204 385 203 373 203 361 c 3
 203 349 204 337 205 326 c 1
 355 326 l 2
 380 326 400 306 400 281 c 3
 400 256 380 236 355 236 c 2
 224 236 l 1
 251 159 313 81 398 81 c 3
 441 81 484 102 520 144 c 0
 528 154 540 159 554 159 c 7
 580 159 599 137 599 114 c 7
 599 103 595 93 588 85 c 0
 538 26 470 -9 398 -9 c 3
 257 -9 165 113 130 236 c 1
 60 236 l 2
 35 236 15 256 15 281 c 3
 15 306 35 326 60 326 c 2
 114 326 l 1
 113 338 113 349 113 361 c 3
 113 373 113 384 114 396 c 1
 60 396 l 2
 35 396 15 416 15 441 c 3
 15 466 35 486 60 486 c 2
 130 486 l 1
 164 613 263 731 398 731 c 3
 470 731 538 696 588 637 c 0
EndSplineSet
EndChar

StartChar: sterling
Encoding: 163 163 162
Width: 614
Flags: W
HStem: 0 90<40.7538 146.791 242 573.246> 344 90<54.2073 130 256 425.793> 641 90<256.448 411.125>
VStem: 122 90<435.148 592.517> 186 92<129.859 332.348>
LayerCount: 2
Fore
SplineSet
516 641 m 0xf0
 522 634 524 624 524 614 c 3
 524 586 503 569 480 569 c 3
 465 569 450 576 442 587 c 0
 411 632 374 641 322 641 c 3
 242 641 212 574 212 506 c 3xf0
 212 483 217 459 224 434 c 1
 388 434 l 2
 413 434 432 414 432 389 c 3
 432 364 413 344 388 344 c 2
 256 344 l 1
 269 301 278 258 278 216 c 3
 278 166 266 125 242 90 c 1
 534 90 l 2
 559 90 580 70 580 45 c 7
 580 20 559 0 534 0 c 2
 80 0 l 2
 55 0 34 20 34 45 c 3
 34 68 55 90 74 90 c 3
 159 90 186 149 186 212 c 3xe8
 186 250 177 296 160 344 c 1
 92 344 l 2
 67 344 48 364 48 389 c 3
 48 414 67 434 92 434 c 2
 130 434 l 1
 125 458 122 483 122 506 c 3
 122 636 208 731 322 731 c 3
 411 731 462 712 516 641 c 0xf0
EndSplineSet
EndChar

StartChar: plus
Encoding: 43 43 163
Width: 614
Flags: W
HStem: 245 92<56.5212 261 353 557.479>
VStem: 261 92<40.5212 245 337 541.479>
LayerCount: 2
Fore
SplineSet
307 548 m 7
 333 548 353 528 353 502 c 2
 353 337 l 1
 518 337 l 2
 544 337 564 317 564 291 c 3
 564 265 544 245 518 245 c 2
 353 245 l 1
 353 80 l 2
 353 54 333 34 307 34 c 7
 281 34 261 54 261 80 c 2
 261 245 l 1
 96 245 l 2
 70 245 50 265 50 291 c 3
 50 317 70 337 96 337 c 2
 261 337 l 1
 261 502 l 2
 261 528 281 548 307 548 c 7
EndSplineSet
EndChar

StartChar: multiply
Encoding: 215 215 164
Width: 614
Flags: W
LayerCount: 2
Fore
SplineSet
118 527 m 3
 130 527 142 522 150 514 c 2
 307 357 l 1
 465 514 l 2
 473 522 484 527 496 527 c 3
 522 527 541 506 541 482 c 3
 541 470 536 458 528 450 c 2
 371 293 l 1
 528 136 l 2
 536 128 541 116 541 104 c 3
 541 80 522 59 496 59 c 3
 484 59 473 64 465 72 c 2
 307 229 l 1
 150 72 l 2
 142 64 130 59 118 59 c 7
 92 59 73 80 73 104 c 7
 73 116 79 128 87 136 c 2
 244 293 l 1
 87 450 l 2
 79 458 73 470 73 482 c 3
 73 506 92 527 118 527 c 3
EndSplineSet
EndChar

StartChar: less
Encoding: 60 60 168
Width: 614
Flags: W
LayerCount: 2
Fore
SplineSet
76 253 m 2
 61 260 49 277 49 295 c 7
 49 313 61 330 76 337 c 2
 500 538 l 2
 506 541 513 542 520 542 c 3
 547 542 565 521 565 496 c 3
 565 478 554 461 539 454 c 2
 203 295 l 1
 539 136 l 2
 554 129 565 112 565 94 c 3
 565 69 547 48 520 48 c 3
 513 48 506 49 500 52 c 2
 76 253 l 2
EndSplineSet
EndChar

StartChar: asciitilde
Encoding: 126 126 170
Width: 614
Flags: W
HStem: 217 70<355.076 470.14> 301 70<143.86 258.924>
LayerCount: 2
Fore
SplineSet
183 371 m 3
 242 371 291 341 323 325 c 0
 358 307 396 287 431 287 c 3
 452 287 473 306 481 327 c 0
 486 341 498 351 514 351 c 7
 533 351 549 334 549 316 c 7
 549 274 491 217 431 217 c 3
 372 217 323 247 291 263 c 0
 256 281 218 301 183 301 c 3
 162 301 141 282 133 261 c 0
 128 247 116 237 100 237 c 3
 81 237 65 254 65 272 c 3
 65 314 123 371 183 371 c 3
EndSplineSet
EndChar

StartChar: logicalnot
Encoding: 172 172 171
Width: 614
Flags: W
HStem: 345 90<60.4806 470>
VStem: 470 90<146.754 345>
LayerCount: 2
Fore
SplineSet
99 435 m 2
 516 435 l 2
 541 435 560 415 560 390 c 2
 560 186 l 2
 560 161 541 140 516 140 c 7
 491 140 470 161 470 186 c 2
 470 345 l 1
 99 345 l 2
 74 345 54 365 54 390 c 3
 54 415 74 435 99 435 c 2
EndSplineSet
EndChar

StartChar: asciicircum
Encoding: 94 94 172
Width: 614
Flags: W
LayerCount: 2
Fore
SplineSet
62 245 m 7
 62 253 64 261 68 267 c 2
 268 627 l 2
 276 641 290 650 307 650 c 3
 324 650 338 641 346 627 c 2
 546 267 l 2
 550 261 552 253 552 245 c 3
 552 220 532 200 507 200 c 3
 490 200 476 209 468 223 c 2
 307 512 l 1
 146 223 l 2
 138 209 124 200 107 200 c 7
 82 200 62 220 62 245 c 7
EndSplineSet
EndChar

StartChar: percent
Encoding: 37 37 173
Width: 959
Flags: W
HStem: -20 92<682.78 791.033> 276 93<682.78 791.033> 351 92<169.576 276.248> 649 92<168.78 277.033>
VStem: 51 92<470.681 622.502> 302 92<470.681 622.502> 565 92<98.4984 249.58> 816 92<98.4984 249.58>
LayerCount: 2
Fore
SplineSet
737 369 m 3xdf
 850 369 908 279 908 174 c 3
 908 69 850 -20 737 -20 c 3
 624 -20 565 69 565 174 c 3
 565 279 624 369 737 369 c 3xdf
737 276 m 3
 666 276 657 206 657 174 c 3
 657 142 666 72 737 72 c 3
 808 72 816 142 816 174 c 3
 816 206 808 276 737 276 c 3
223 741 m 3
 336 741 394 652 394 547 c 3
 394 442 336 351 223 351 c 3xbf
 110 351 51 442 51 547 c 3
 51 652 110 741 223 741 c 3
223 649 m 3
 152 649 143 579 143 547 c 3
 143 515 152 443 223 443 c 3
 294 443 302 515 302 547 c 3
 302 579 294 649 223 649 c 3
738 741 m 3
 765 741 784 719 784 695 c 3
 784 685 781 675 775 667 c 2
 258 -3 l 2
 250 -14 235 -20 221 -20 c 7
 194 -20 175 1 175 26 c 7
 175 36 178 45 184 53 c 2
 701 723 l 2
 709 734 723 741 738 741 c 3
EndSplineSet
EndChar

StartChar: at
Encoding: 64 64 174
Width: 970
Flags: W
HStem: -167 92<355.244 642.213> 59 75<396.597 520.247> 61 93<676.294 771.896> 437 71<441.022 571.672> 639 92<367.2 649.878>
VStem: 59 93<137.541 420.464> 269 90<176.423 344.744> 601 73<225.846 347.95> 615 96<444 494.352> 819 92<215.996 479.285>
LayerCount: 2
Fore
SplineSet
911 358 m 3xbf40
 911 192 850 61 722 61 c 3xbf40
 649 61 614 85 594 151 c 1
 558 83 494 59 431 59 c 3
 320 59 269 167 269 260 c 3
 269 410 362 508 504 508 c 3
 549 508 598 480 615 444 c 1
 622 482 630 503 670 503 c 3
 694 503 711 481 711 458 c 3xdec0
 711 445 674 204 674 188 c 3
 674 169 687 154 721 154 c 3
 805 154 819 283 819 358 c 3
 819 561 673 639 516 639 c 3
 272 639 152 504 152 271 c 3
 152 40 316 -75 468 -75 c 3
 585 -75 635 -68 715 -11 c 0
 723 -5 732 -2 741 -2 c 3
 769 -2 787 -22 787 -48 c 3
 787 -62 780 -77 768 -86 c 0
 674 -154 590 -167 468 -167 c 3
 268 -167 59 -5 59 271 c 3
 59 598 264 731 516 731 c 3
 754 731 911 588 911 358 c 3xbf40
601 323 m 3
 601 382 581 437 509 437 c 3
 419 437 359 337 359 255 c 3
 359 213 386 134 443 134 c 3xdf40
 551 134 601 238 601 323 c 3
EndSplineSet
EndChar

StartChar: ampersand
Encoding: 38 38 175
Width: 724
Flags: W
HStem: -7 92<203.272 387.627> 641 92<262.414 397.239>
VStem: 52 92<141.585 263.374> 150 92<509.121 620.965> 416 92<528.498 620.362> 540 88<272.661 342.762>
LayerCount: 2
Fore
SplineSet
508 584 m 3
 508 490 434 417 358 379 c 1
 403 326 450 274 496 228 c 1
 511 258 527 290 540 321 c 0
 547 337 563 349 582 349 c 3
 613 349 628 325 628 303 c 3
 628 297 626 290 624 285 c 0
 608 246 589 204 564 162 c 1
 604 124 639 93 656 79 c 0
 666 71 672 58 672 44 c 7
 672 17 650 -2 626 -2 c 7
 615 -2 604 2 596 9 c 0
 578 24 547 52 510 87 c 1
 459 33 385 -7 290 -7 c 3
 157 -7 52 71 52 209 c 3
 52 302 132 376 210 419 c 1
 174 471 150 519 150 572 c 3
 150 684 237 733 342 733 c 3
 428 733 508 659 508 584 c 3
242 572 m 3
 242 546 272 491 298 454 c 1
 345 471 416 528 416 584 c 3
 416 617 371 641 340 641 c 3
 281 641 242 622 242 572 c 3
144 209 m 3
 144 118 227 85 290 85 c 3
 363 85 407 111 444 151 c 1
 379 214 319 277 266 343 c 1
 217 315 144 264 144 209 c 3
EndSplineSet
EndChar

StartChar: degree
Encoding: 176 176 176
Width: 384
Flags: W
HStem: 422 70<134.618 249.382> 662 70<134.618 249.382>
VStem: 36 70<519.914 634.086> 278 70<519.914 634.086>
LayerCount: 2
Fore
SplineSet
106 577 m 7
 106 530 145 492 192 492 c 7
 239 492 278 530 278 577 c 7
 278 624 239 662 192 662 c 7
 145 662 106 624 106 577 c 7
36 577 m 7
 36 663 106 732 192 732 c 7
 278 732 348 663 348 577 c 7
 348 491 278 422 192 422 c 7
 106 422 36 491 36 577 c 7
EndSplineSet
EndChar

StartChar: bar
Encoding: 124 124 177
Width: 281
Flags: W
HStem: 709 20G<127.5 152.5>
VStem: 96 90<-186.519 722.519>
LayerCount: 2
Fore
SplineSet
186 684 m 2
 186 -148 l 2
 186 -173 165 -193 140 -193 c 7
 115 -193 96 -173 96 -148 c 2
 96 684 l 2
 96 709 115 729 140 729 c 7
 165 729 186 709 186 684 c 2
EndSplineSet
EndChar

StartChar: brokenbar
Encoding: 166 166 178
Width: 281
Flags: W
HStem: 709 20G<127.5 152.5>
VStem: 96 90<-184.519 202.519 335.481 722.519>
LayerCount: 2
Fore
SplineSet
186 164 m 2
 186 -146 l 2
 186 -171 165 -191 140 -191 c 7
 115 -191 96 -171 96 -146 c 2
 96 164 l 2
 96 189 115 209 140 209 c 7
 165 209 186 189 186 164 c 2
186 684 m 2
 186 374 l 2
 186 349 165 329 140 329 c 7
 115 329 96 349 96 374 c 2
 96 684 l 2
 96 709 115 729 140 729 c 7
 165 729 186 709 186 684 c 2
EndSplineSet
EndChar

StartChar: dieresis
Encoding: 168 168 179
Width: 512
Flags: W
HStem: 614 109<120.037 207.324 304.676 391.963>
VStem: 109 109<624.676 711.963> 294 109<624.676 711.963>
LayerCount: 2
Fore
SplineSet
294 668 m 7
 294 698 318 723 348 723 c 7
 378 723 403 698 403 668 c 7
 403 638 378 614 348 614 c 7
 318 614 294 638 294 668 c 7
109 668 m 7
 109 698 134 723 164 723 c 7
 194 723 218 698 218 668 c 7
 218 638 194 614 164 614 c 7
 134 614 109 638 109 668 c 7
EndSplineSet
EndChar

StartChar: grave
Encoding: 96 96 180
Width: 512
Flags: W
HStem: 557 231
VStem: 107 170
LayerCount: 2
Fore
SplineSet
107 743 m 7
 107 768 127 788 152 788 c 7
 169 788 183 779 191 765 c 2
 271 624 l 2
 275 617 277 610 277 602 c 3
 277 577 257 557 232 557 c 3
 215 557 201 566 193 580 c 2
 113 721 l 2
 109 728 107 735 107 743 c 7
EndSplineSet
EndChar

StartChar: acute
Encoding: 180 180 181
Width: 512
Flags: W
HStem: 556 232
VStem: 234 171
LayerCount: 2
Fore
SplineSet
405 743 m 7
 405 735 403 728 399 721 c 2
 318 579 l 2
 310 565 296 556 279 556 c 3
 254 556 234 576 234 601 c 3
 234 609 236 617 240 624 c 2
 321 766 l 2
 329 780 343 788 360 788 c 7
 385 788 405 768 405 743 c 7
EndSplineSet
EndChar

StartChar: circumflex
Encoding: 710 710 182
Width: 512
Flags: W
HStem: 557 244
VStem: 112 288<573 599>
LayerCount: 2
Fore
SplineSet
112 592 m 3
 112 599 114 605 117 610 c 2
 226 784 l 2
 232 794 243 801 256 801 c 7
 269 801 280 794 286 784 c 2
 395 610 l 2
 398 605 400 599 400 592 c 3
 400 573 384 557 365 557 c 3
 352 557 341 563 335 573 c 2
 256 700 l 1
 177 573 l 2
 171 563 160 557 147 557 c 3
 128 557 112 573 112 592 c 3
EndSplineSet
EndChar

StartChar: macron
Encoding: 175 175 184
Width: 512
Flags: W
HStem: 624 90<102.481 409.519>
VStem: 96 320<630.207 707.246>
LayerCount: 2
Fore
SplineSet
141 714 m 2
 371 714 l 2
 396 714 416 693 416 668 c 3
 416 643 396 624 371 624 c 2
 141 624 l 2
 116 624 96 643 96 668 c 3
 96 693 116 714 141 714 c 2
EndSplineSet
EndChar

StartChar: cedilla
Encoding: 184 184 185
Width: 512
Flags: W
HStem: -199 60<172.25 304.083> -186 58<148.18 252.457> -88 128<210.593 261.51> -88 60<262 304.098>
VStem: 194 76<-27.6624 28.7041> 305 60<-132.422 -90.8552>
LayerCount: 2
Fore
SplineSet
270 10 m 3xac
 270 -1 263 -21 262 -28 c 1
 308 -28 365 -52 365 -112 c 3
 365 -168 309 -199 254 -199 c 3x9c
 221 -199 194 -197 166 -186 c 0
 155 -182 147 -171 147 -158 c 3
 147 -142 161 -128 177 -128 c 7x4c
 181 -128 185 -129 189 -131 c 0
 205 -138 222 -139 254 -139 c 3
 267 -139 305 -131 305 -112 c 3
 305 -92 278 -88 260 -88 c 3
 241 -88 232 -93 224 -93 c 3
 208 -93 194 -79 194 -63 c 0
 194 -57 196 -51 210 16 c 0
 213 30 226 40 240 40 c 3
 256 40 270 27 270 10 c 3xac
EndSplineSet
EndChar

StartChar: notequal
Encoding: 8800 8800 187
Width: 614
Flags: W
HStem: 145 92<56.5212 211 336 557.479> 356 92<56.5212 278 402 557.479>
VStem: 144 90<-113.121 -65.1213> 380 90<659.023 707.479>
LayerCount: 2
Fore
SplineSet
424 714 m 0
 450 714 470 694 470 668 c 0
 470 664 468 658 467 654 c 2
 402 448 l 1
 518 448 l 2
 544 448 564 428 564 402 c 0
 564 376 544 356 518 356 c 2
 374 356 l 1
 336 237 l 1
 518 237 l 2
 544 237 564 217 564 191 c 0
 564 165 544 145 518 145 c 2
 307 145 l 1
 234 -88 l 2
 228 -107 210 -120 191 -120 c 0
 162 -120 144 -97 144 -74 c 0
 144 -70 146 -64 147 -60 c 2
 211 145 l 1
 96 145 l 2
 70 145 50 165 50 191 c 0
 50 217 70 237 96 237 c 2
 240 237 l 1
 278 356 l 1
 96 356 l 2
 70 356 50 376 50 402 c 0
 50 428 70 448 96 448 c 2
 307 448 l 1
 380 682 l 2
 386 701 405 714 424 714 c 0
EndSplineSet
EndChar
